/* XPM */
static char *sp3dalign_xpm[] = {
/* width height num_colors chars_per_pixel */
"   100    18      256            2",
/* colors */
"`` c #04020c",
"`. c #848264",
"`# c #3c423c",
"`a c #ccc28c",
"`b c #646254",
"`c c #a4a28c",
"`d c #1c2224",
"`e c #ece2ac",
"`f c #74725c",
"`g c #949274",
"`h c #545244",
"`i c #2c322c",
"`j c #fcf2b4",
"`k c #dcd29c",
"`l c #0c1214",
"`m c #bcb284",
"`n c #84827c",
"`o c #7c7a5c",
"`p c #4c463c",
"`q c #6c6a54",
"`r c #fcfedc",
"`s c #141a1c",
"`t c #242a2c",
"`u c #8c8a6c",
"`v c #5c5a4c",
"`w c #3c3a34",
"`x c #e4daa4",
"`y c #bcba9c",
"`z c #d4ca94",
"`A c #b4aa84",
"`B c #f4eaac",
"`C c #9c9a7c",
"`D c #fcfabc",
"`E c #040a14",
"`F c #444a44",
"`G c #7c7a74",
"`H c #6c6a64",
"`I c #1c1a1c",
"`J c #74726c",
"`K c #343a3c",
"`L c #8c826c",
"`M c #44423c",
"`N c #6c6654",
"`O c #acaa84",
"`P c #242224",
"`Q c #94928c",
"`R c #34322c",
"`S c #e4d29c",
"`T c #c4b68c",
"`U c #4c4e44",
"`V c #2c2a24",
"`W c #645e4c",
"`X c #fcfacc",
"`Y c #d4c694",
"`Z c #aca27c",
"`0 c #f4e2ac",
"`1 c #5c5654",
"`2 c #14121c",
"`3 c #bcb294",
"`4 c #8c8a84",
"`5 c #847a64",
"`6 c #948a6c",
"`7 c #ecdaa4",
"`8 c #ccbe8c",
".` c #dcce9c",
".. c #646664",
".# c #7c725c",
".a c #9c9274",
".b c #545254",
".c c #746e54",
".d c #fcfef4",
".e c #5c5a5c",
".f c #443e3c",
".g c #fceab4",
".h c #0c0e14",
".i c #1c1e2c",
".j c #44464c",
".k c #242634",
".l c #34323c",
".m c #2c2a34",
".n c #aca68c",
".o c #04061c",
".p c #848274",
".q c #ccc29c",
".r c #646654",
".s c #bcb684",
".t c #4c4a4c",
".u c #141a2c",
".v c #3c3e44",
".w c #c4ba8c",
".x c #d4cea4",
".y c #bcae8c",
".z c #a49a7c",
".A c #fcfebc",
".B c #6c6e64",
".C c #1c1e1c",
".D c #44463c",
".E c #242624",
".F c #e4d6ac",
".G c #aca67c",
".H c #948e6c",
".I c #ecdea4",
".J c #04060c",
".K c #84866c",
".L c #ccc694",
".M c #ece2bc",
".N c #54564c",
".O c #fcf6bc",
".P c #dcd6a4",
".Q c #0c1224",
".R c #84867c",
".S c #7c7a6c",
".T c #4c4a44",
".U c #6c6e5c",
".V c #fcfeec",
".W c #5c5e54",
".X c #3c3e3c",
".Y c #d4ce9c",
".Z c #b4ae8c",
".0 c #040e1c",
".1 c #7c7e74",
".2 c #74766c",
".3 c #8c8664",
".4 c #343634",
".5 c #e4d69c",
".6 c #544e4c",
".7 c #2c2e2c",
".8 c #fcfecc",
"#` c #f4e6ac",
"#. c #9c9684",
"## c #14161c",
"#a c #8c8e84",
"#b c #847e64",
"#c c #7c765c",
"#d c #9c9674",
"#e c #fceeb4",
"#f c #c4be8c",
"#g c #a49e7c",
"#h c #bcb694",
"#i c #545654",
"#j c #5c5e5c",
"#k c #34363c",
"#l c #2c2e34",
"#m c #141e2c",
"#n c #84826c",
"#o c #3c4244",
"#p c #ccc294",
"#q c #64625c",
"#r c #1c222c",
"#s c #ece2b4",
"#t c #747264",
"#u c #94927c",
"#v c #54524c",
"#w c #2c3234",
"#x c #fcf2bc",
"#y c #dcd2a4",
"#z c #0c121c",
"#A c #bcb28c",
"#B c #7c7a64",
"#C c #4c4644",
"#D c #6c6a5c",
"#E c #fcfee4",
"#F c #141a24",
"#G c #242a34",
"#H c #8c8a74",
"#I c #5c5a54",
"#J c #3c3a3c",
"#K c #e4daac",
"#L c #d4ca9c",
"#M c #b4aa8c",
"#N c #f4eab4",
"#O c #fcfac4",
"#P c #040a1c",
"#Q c #444a4c",
"#R c #6c6a6c",
"#S c #1c1a24",
"#T c #444244",
"#U c #6c665c",
"#V c #24222c",
"#W c #343234",
"#X c #4c4e4c",
"#Y c #2c2a2c",
"#Z c #645e54",
"#0 c #d4c69c",
"#1 c #aca284",
"#2 c #948a74",
"#3 c #ecdaac",
"#4 c #ccbe94",
"#5 c #dccea4",
"#6 c #746e5c",
"#7 c #fcfefc",
"#8 c #0c0e1c",
"a` c #64665c",
"a. c #bcb68c",
"a# c #c4ba94",
"aa c #fcfec4",
"ab c #6c6e6c",
"ac c #1c1e24",
"ad c #444644",
"ae c #24262c",
"af c #aca684",
"ag c #948e74",
"ah c #ecdeac",
"ai c #040614",
"aj c #848684",
"ak c #7c7e7c",
"al c #747674",
"am c #8c866c",
"an c #e4d6a4",
"ao c #fcfed4",
"ap c #f4e6b4",
"aq c #141624",
"ar c #8c8e8c",
"as c #847e6c",
"at c #7c7664",
"au c #9c967c",
"av c #fceebc",
"aw c #a49e84",
"ax c #000000",
"ay c #000000",
"az c #000000",
"aA c #000000",
"aB c #000000",
"aC c #000000",
"aD c #000000",
"aE c #000000",
"aF c #000000",
"aG c #000000",
"aH c #000000",
"aI c #000000",
"aJ c #000000",
"aK c #000000",
"aL c #000000",
"aM c #000000",
"aN c #000000",
"aO c #000000",
"aP c #000000",
"aQ c #000000",
"aR c #000000",
"aS c #000000",
"aT c #000000",
"aU c #000000",
"aV c #000000",
"aW c #000000",
"aX c #000000",
"aY c #000000",
"aZ c #000000",
"a0 c #000000",
"a1 c #000000",
"a2 c #000000",
"a3 c #000000",
"a4 c #000000",
"a5 c #000000",
"a6 c #000000",
"a7 c #000000",
"a8 c #000000",
/* pixels */
".7#Y`V.E.E.E.E.E.E.E.E.E.E`V.E`V.E.E`V.E.E.E.E.E.E.E.E.E.E`V.E.E`V.E.E`V.E`Vae`V.E`V`t`V`V#Y`V#Y#Y.7.7#Y.7.7`R.7`R.7`R#w`R`R#W`R#W#W.4`R.4.4.4.4.4`w.4`w.4`w`K`w`w`K`w#J`w#J.X`w.X.X.X.X.f.X.X`M`Mad`U#X",
".7.E`M.T.t`U#X`U`U.6.T`U.t.T#X.T`U#X.t`U.6#X`U.6.6#X.6#v#X#X#v#v#X#v#v#v#v#v#v#v#v#i.N#i#i#i#I#i.W#I#I.W#j#Z#j#q#q#q#qa`#q....a``Ha``H`H`H`H.B`H`H`H`H.Bab.B`J`J.2`J.2.2.2`G.2`G`G`G`G.1.1.1asak.1`J.f#X",
"`V`M.t`U#X.T.T.t.T#X`U.T.T#Yad.T.t`U#X.T#X.6#X#X#v#X#v#X#v#v#X#v#v#v#X#i#v#i#v#i#i#v#i`1.N#I#i.W#I.W#j.W#Z#j#q#q#j..a`..`H..`H..`H`H...B`H.B`H`H..#v`K#q`H`Jab.2`J`J.2al.2`G.2`G.2`G.1`G.1akak.pak`n.2.T",
"#Y`U#X.T#X.6#X`h#X.6`U.t#Y#c.E#J###W`U.6#X#v#v#v#v.N#v.N#v.N#i#v#i#i.N#i.N#i#i#I#i#I#I#I.W.W#j#Z#j#q#q#q..#qa`..a``H..`H`H`H`H.B.Bab#tab.Bab.B`H.4.N.Z.4#j.2`J.2`G.2`G`G.Sal.1`G.1.1.1.1as`nak`n`n.R.Rad",
"`V#v#X#X`U`U#X.T.T`U.T`F##`k.D##.Y.c#W#X#v#X#X#X#v#X#v#X#v#v.N#i.N#I#I#i#I`1.N.N#i`v#i#I#I#I.W#j.W#ja`..a`..a`#U..a``H`H.B.B.B.Bab.B.B.B`J#U..adatao#e.O#W.B`J.2`J.Sal.2alatal`G`Gal`G`G`G.1`n.1.R`n`4ad",
"#Y#X#v#X#v.6`F#W#l#wad#C`s.``M`P.a`p.X.T.4`i`w.X.D#X.7`F#k.7.t#i#I#I#I.W#I.t#J.4.X#I#i#i.4#X.X`K`1a`a`#U..#D#j#o.X.t.....X`H`Hab.X#U#Rad#I#o#o.m#p#N.o#W#jadad.t.2`J.2`J#X#Q#j.2.2`J#v#Q#i.1ak.R.R`4`4.T",
".7.N.N#v#v`w`s`W`f`Nac`w#S`k`pae`q.X.X`d#v`L`v`M.T#Y`6`d`N`L.E.X#I.W.W.e`K.7`q`6`vac.T#W.z###tam.7#T`H`H`H.b`Pag#g#D.T`w.y.4..#T#A#X`Fau.Xau`C`Mapah.W#X#J`c.y`u.m#q#i.m#Ha#`b#T#I#l#u#hat#k`J`n.R`4#a.T",
".E.6#X#X#v##`0#p#g.``A.Eac.I`F###`#b`sam`7.G.I`Y#g#z`e`k.`an`e.C#i#j.W.T.4#e.I#h.A#Aac.N.O`x.g`jaa`t#q...B`t#x#xan.Vaca`#E#U#i#r.V#Dae#Naoao#E`3aaaa.8ad#7aa#N.V.x`K#W`r.d.M#7.z.k#E#E.8#7a##Q.R`Q`Q#a.T",
"`Pad`M`M.X.7`w.J```R#p`s#F.`.D##an#B#z.O`h`E#Z#e#z`d.g.z`Eae.O#6`M#j#Z#l#A`k.i#S#caa#T`h`D.y`E.t.8#Z#v.Bab#S#E`5aiae#Q#q`r`b#v`t.V#U#G`0#Eac#l.iapap#F#Q#D#S.o`c#E#V`c#7ad#la`#i`C#Eai``.a.V###R`H`H`J`K",
".Eadad#T`M`i.C`v`o.3.G####`m`w#z.y`W`E`A.#```o`Yac`Ian.X.7#S.I#b.4#i#Iacaaas.7.Xae.8`N#v.8#v.X#r`r`b#i`J.2.l#e.V.x.N#J#D.V.B.t#l.V.U#G.O.z.v#X#W`eap#l#T#k`O#y`eaa#8#A#`ac.T#Tae#L`x`S#K.Pao#v.Nab.2.2.X",
".E.T.Tad`M#8`m.a#Z`N`m`I`Ia#`M`2#f`N.h#d`m#p.w.6`t`s.`.f`i#S`Y`N.7.T#Q`2.``N`P`i#F`S`#.Xan.D#W`I`0`F`M#i#i.T#z`v#K.O`w#C`j.T`R.Q.A#vac#0#H.4#X#Y.q.Lae#Jaa#5am.Zaa.0#0.qae#Xadae.F#L#X#U#q.r.fab`J.2`G.X",
".E`U.Tad.4`M`T.7``.D.w#S`s#p.f`l`a`b.E`z`M`vac.h`Rac`k`p.4`I`k#6#w.6#v`d.w.Z#F##.##N.7#C`e`U.Xac.O`U.t#j#j.f.Xaq``aa`u#vaa.r#8#Daa`1`dan.a.v.W#l.Y#L#ram.8#8``.Zaa`2`Cao#J#r.N`1af.8#8#raeac#i`J`J.2`G.X",
"`V.t#X.T#T`I.s`Z.H#4`8##`I.P`p##`k#cai`Z#0.``k.``K##`0.T.X#F#`#B#W.N#i#J`U.g`z`A#eam#V.N`D`1.Dac.8#v#X`b#i.T`r#p.Faa`w#Sap`D`xaaaa#Zaeap#g#oa`#lahah#l#Jao#eap`Dao#r#J.8.8#5#E#H`taoaoanav.Vac.2.2al`G`M",
".E#v.T.T.T#W`d.#`N.E#B#Y.7#b`t.7`f.f`M`k`s.h#za.`.`Pag`t#v#W`5.D.t#I#I#I#W`V#Bag.X`t.6`i.z.7.e#J.H`M#j..`H.X#v.z#g#Wad#Xaeag.a`t.z.T.jag.N#Z`H.batat#X#Tad`A#n.Xaw.X.t#V#d`A#I#J#Xaeam`O.z.4#val`Gal.1.f",
"#Y#X#X#X#X.t.D#Y#l`##Y.t#X.7#v.6#W#w`v.5#2#J`fah.##k#w`1#i.W`K#v#j.W#j.W#j#X.X.4.t.W.e.W`w#j#qa`#T#q`H`H`H.B.b.X.X#j#U..a`#T#T#j#o#q.B#X#q.2ab.2.b#i.B.B#I.v`F#Iad`H.B...j#o#i#6aba`#X#oad`Halal.S`G.1#T",
"#Y.T#v#v#v#X#X#X#X.6.N#X.N#i.N.N#v#v`Pat`m`T`T#6#r.N#I.W.W#j#Z#j#q#q..#q#q#j#q#j#q#q#q..`H`H..`H.B`H.Bab.B`Hab`Hababab`Jab`Jab.B`Jab`J.2al`Jal`Jal.2`Jal.2`J`J`J`J`J`J.2`J.2.2`J.2`J`J`J.2`Jal`G`Gak.Bad",
"`R`tad.N#i.N#I`v#i#I#I#I.W.e#j#j#j#I#i`K`t`t`t#J.W#Z....#U..`H..`H..`H`H`H.B`H`Hab.Bab#6abab`J`J.2`Jalatal`G.2`G.S.1`G`G.1`G`G`G`G.1.1.1`Gak.1.1asak.pak.1.1ak.1`nak`nak.pak`nak`n`nak`n`n`n.1`n.1`J.X`U",
"`R`R`R.7.7`R.7.7`R.7`R#W`R`R`R`R`R#W`R`R#W#W.4#W.4#W.4.4.4`w.4.4`w`K`w`K`w`K`w`w#J`w#J.X.X.X.X.X.X.X.X.X.X.X`M.X.X`M`#`M`M`M`M`M#T`M#T`M#T`M`M#T#T#T`#`M#Tad`M#T`Mad`M`M#T`M#T`M#T`M.D`M`M#T`M.D#Tad#X.t"
};
