/* XPM */
static char *sp3dduplicate_xpm[] = {
/* width height num_colors chars_per_pixel */
"    52    18      256            2",
/* colors */
"`` c #040204",
"`. c #84826c",
"`# c #3c423c",
"`a c #ccc294",
"`b c #646254",
"`c c #1c2224",
"`d c #ece2ac",
"`e c #a4a27c",
"`f c #545244",
"`g c #2c322c",
"`h c #74725c",
"`i c #fcf2b4",
"`j c #949274",
"`k c #dcd29c",
"`l c #0c121c",
"`m c #bcb28c",
"`n c #7c7a64",
"`o c #fcfedc",
"`p c #4c4a3c",
"`q c #343a3c",
"`r c #242a2c",
"`s c #545a54",
"`t c #d4ca9c",
"`u c #fcfabc",
"`v c #9c9a7c",
"`w c #141a1c",
"`x c #b4aa84",
"`y c #8c8a6c",
"`z c #6c6a5c",
"`A c #f4eab4",
"`B c #444a4c",
"`C c #34322c",
"`D c #74726c",
"`E c #e4daa4",
"`F c #7c7a74",
"`G c #645e4c",
"`H c #444234",
"`I c #242224",
"`J c #544e44",
"`K c #040a14",
"`L c #d4c294",
"`M c #9c9274",
"`N c #c4ba8c",
"`O c #3c3a34",
"`P c #2c2a24",
"`Q c #5c5a4c",
"`R c #fcfecc",
"`S c #1c1a1c",
"`T c #948a6c",
"`U c #34323c",
"`V c #f4e2ac",
"`W c #aca284",
"`X c #545254",
"`Y c #7c725c",
"`Z c #fcf6c4",
"`0 c #14121c",
"`1 c #847a64",
"`2 c #fcfef4",
"`3 c #4c4a4c",
"`4 c #dcca9c",
"`5 c #a49a74",
"`6 c #bcae84",
"`7 c #746e5c",
"`8 c #444244",
".` c #242634",
".. c #3c3e44",
".# c #5c5a5c",
".a c #646664",
".b c #fcf6b4",
".c c #e4d6ac",
".d c #fcfebc",
".e c #b4ae94",
".f c #6c6e6c",
".g c #fceeb4",
".h c #34362c",
".i c #ecdea4",
".j c #242624",
".k c #0c0a14",
".l c #d4c6a4",
".m c #9c9674",
".n c #3c3e34",
".o c #2c2e34",
".p c #948e6c",
".q c #a49e84",
".r c #8c866c",
".s c #64665c",
".t c #54564c",
".u c #dcd6a4",
".v c #bcb68c",
".w c #fcfeec",
".x c #4c4e44",
".y c #d4ce9c",
".z c #141e24",
".A c #b4ae8c",
".B c #6c6e64",
".C c #74766c",
".D c #7c7e74",
".E c #44463c",
".F c #d4c694",
".G c #ccbe8c",
".H c #2c2e2c",
".I c #5c5e54",
".J c #1c1e24",
".K c #f4e6ac",
".L c #aca67c",
".M c #7c765c",
".N c #14161c",
".O c #847e64",
".P c #a49e7c",
".Q c #0c0e14",
".R c #040614",
".S c #84827c",
".T c #3c4244",
".U c #ccc694",
".V c #64625c",
".W c #1c222c",
".X c #ece2b4",
".Y c #a4a284",
".Z c #54524c",
".0 c #2c3234",
".1 c #747264",
".2 c #fcf2bc",
".3 c #94927c",
".4 c #dcd2a4",
".5 c #0c1224",
".6 c #7c7a6c",
".7 c #fcfee4",
".8 c #4c4a44",
"#` c #242a34",
"#. c #34363c",
"## c #545654",
"#a c #4c4e4c",
"#b c #dcce9c",
"#c c #444644",
"#d c #5c5e5c",
"#e c #fcfac4",
"#f c #141a24",
"#g c #b4aa8c",
"#h c #8c8a74",
"#i c #6c6a64",
"#j c #f4eabc",
"#k c #343234",
"#l c #e4daac",
"#m c #645e54",
"#n c #44423c",
"#o c #24222c",
"#p c #544e4c",
"#q c #9c927c",
"#r c #3c3a3c",
"#s c #2c2a2c",
"#t c #5c5a54",
"#u c #fcfed4",
"#v c #1c1a24",
"#w c #948a74",
"#x c #fcfefc",
"#y c #a49a7c",
"#z c #fcf6bc",
"#A c #fcfec4",
"#B c #fceebc",
"#C c #343634",
"#D c #ecdeac",
"#E c #24262c",
"#F c #9c967c",
"#G c #3c3e3c",
"#H c #948e74",
"#I c #bcb694",
"#J c #d4cea4",
"#K c #747674",
"#L c #7c7e7c",
"#M c #d4c69c",
"#N c #ccbe94",
"#O c #f4e6b4",
"#P c #aca684",
"#Q c #7c7664",
"#R c #141624",
"#S c #847e6c",
"#T c #0c0e1c",
"#U c #000000",
"#V c #000000",
"#W c #000000",
"#X c #000000",
"#Y c #000000",
"#Z c #000000",
"#0 c #000000",
"#1 c #000000",
"#2 c #000000",
"#3 c #000000",
"#4 c #000000",
"#5 c #000000",
"#6 c #000000",
"#7 c #000000",
"#8 c #000000",
"a` c #000000",
"a. c #000000",
"a# c #000000",
"aa c #000000",
"ab c #000000",
"ac c #000000",
"ad c #000000",
"ae c #000000",
"af c #000000",
"ag c #000000",
"ah c #000000",
"ai c #000000",
"aj c #000000",
"ak c #000000",
"al c #000000",
"am c #000000",
"an c #000000",
"ao c #000000",
"ap c #000000",
"aq c #000000",
"ar c #000000",
"as c #000000",
"at c #000000",
"au c #000000",
"av c #000000",
"aw c #000000",
"ax c #000000",
"ay c #000000",
"az c #000000",
"aA c #000000",
"aB c #000000",
"aC c #000000",
"aD c #000000",
"aE c #000000",
"aF c #000000",
"aG c #000000",
"aH c #000000",
"aI c #000000",
"aJ c #000000",
"aK c #000000",
"aL c #000000",
"aM c #000000",
"aN c #000000",
"aO c #000000",
"aP c #000000",
"aQ c #000000",
"aR c #000000",
"aS c #000000",
"aT c #000000",
"aU c #000000",
"aV c #000000",
"aW c #000000",
"aX c #000000",
"aY c #000000",
"aZ c #000000",
"a0 c #000000",
"a1 c #000000",
"a2 c #000000",
"a3 c #000000",
"a4 c #000000",
"a5 c #000000",
"a6 c #000000",
"a7 c #000000",
"a8 c #000000",
/* pixels */
".H.H`P.j`P`r`P`P#s`P#s`P#s.H#s`P.H.H.H.H`C.H`C.H`C.H#k`C`C#k`C#C`C#C#k#C#C`O#C`O`q`O`O`O`O#r#G`O#G#n#c.8",
".H`P`8#a.Z#a#p#a.Z#a.t##.t.t###t###t#t#t#t#d#t#d.V#d.V#d.s.s.a.s#i.a#i#i#i.B.B#i`D`D.f.C.C.C.C`F#K.B#G.8",
"#s.E#p#a#a.x#a.Z#a.t.Z##.t#t###t###t#t#t#d#t#t#d#t.I#d#d.V.V.a.a.s#i.s#i#i.B.f`D#i.f`D`D`D`D#K.C`F`F.B#c",
"`P#a.Z.Z#p.Z.E.J#n##.Z###t###t#t#t#t#d#d.I#d#d#c`r.Z##.t#i.s.a#i#i#i.f.B.f`D.B`D.f`D`D.C`D#K`F`F`F.D.S#n",
"#s.Z#a.Z#a#a`c.v`H`8.t#t###t#t.#.I#d.I#d#d#t#c`b`L.o#c#n#c#i.s#i#i#i.B#i.f`7.f.f`D`3`s`D`D#K.6#K`F`F#L.E",
".H.Z#a#a.x.8`w#D.E`8`X###t#t#d#t#t#t#t#t#t###C.r#A`l`W.7`w.a.s#i.a#i#i#i.B.f#i.a.8`j`7##.f`D#K.C.C`F.D#c",
".H.Z.Z#C#v.N.k`E.8`q.N`O.##r`l#c#G#f.o`w.J#r`U`y#e`c.o#r`3###k.J#f#G#d.0#v.J.o.t`0#j.q#T`B.I.o.W#E`B.S#n",
".H.t#k.E.F.K`n`k.8`0#A#n#G.x`R`w`Q#z`T`R#e`z`c#w#A.N`M`A.H.o`m`o.7`W#E#D.w.w#O#f`Z`R#u#x.1#k`Z#x.w`1`B.8",
".j#a.N.c`v.o`a`t.x#R.g.x#r`f#z#v.Z`V#D#.`W.d.J#h#A`0.q#l.J#y`R`z#m`A..`A#C`q`o#y.o#z`N#d#.`Z#j.`.3`2#r#k",
"`P#k`O.G`g.j#R`i`f#v#z.Z.0#p`u#f.t#A.z.H#n`R`J.r#u`l.q#D.5.X#b.`#c`q#c#v.V#H#A#g#R.2#g`U.o.w`W.P`1#A.O.j",
".j#C`O`N`S`I.Q`4.E.N.g`f.H.Z#A#v`Q`R#R#C#E#u#a#h`R#R.P.X`0`A#F`q.t`8#c.w#u#M`R.A#f#B#F.0#o.d`v#y.Y.P#t`C",
".j#G`C#N.n#T.x`a#n`0#b.8.R`b#D#f.Z.2`7#R`h`o#k#F`o#R#g.2#f.X#O#f#``n#q#u``.R#b#w#R.y`N.5`c`R`1.R#f`l`B#G",
"`P#a`S`v.G`M`a`a`p#f.L.F`6`t`E.N`p`a`V#P.i.r.N.r.b#T.p.U.J.E#A`4#b`R.W#A.4`A#A`v`c#g`R`V#p#w`o.4.c.7`z.H",
"#s#a`H`S`Q`h`S`Y.H#G`I`h.M.J#H#E.8.K#T`M.I#E#c.8.r#k#a#S`8#r.o#y#H.W`O.Z`e`b`z`Q#p.H#w#P#G.0#c`W`x`8.8#n",
"`P#a#a#a#C`C#c#k#a.Z#a#.#C#a.H`8.8#z`S#C`##t.I`X#r.V.t`8.s.V`s#r`##d.V#a#r`3`3`s.a.V#c.T.s#i.#.T...V#K#G",
".H.8`X.Z.Z#a.Z#######t###t###t.8.E`k`r#t#d.V.V.s.a.s.a#i.a#i.a#i.a#i#i#i#i.B#i`7.f.f.f`D.f`D.B`D`D.C#i`8",
"#k#s.x`s#t#d.I#d#m#d.V.V.V.V.V.s`X`r#t.a#i.B.f.B.f`D.f.1.f`D`D`D.C`D.C.C#K.C#K`F`F`F`F`F.6`F`F`F`F.B#G.8",
"#C#C`C.o`C`C`C#k`C#k`C#C#C#C#C#C`O`O`O#C`O`O`O#r`O`O`O#r#G.n#G#G#G#G#G#G#n#G#n`##n#G#n`##n..#n`##n#c.8#a"
};
