/* XPM */
static char *sp3dadd_xpm[] = {
/* width height num_colors chars_per_pixel */
"    60    18      256            2",
/* colors */
"`` c #04020c",
"`. c #049604",
"`# c #344624",
"`a c #84826c",
"`b c #8cc624",
"`c c #1c222c",
"`d c #5c625c",
"`e c #ccc29c",
"`f c #342264",
"`g c #2c3234",
"`h c #94b244",
"`i c #4c524c",
"`j c #241e1c",
"`k c #f4e6ac",
"`l c #5c9604",
"`m c #d4fe24",
"`n c #6c726c",
"`o c #04122c",
"`p c #8cea1c",
"`q c #342244",
"`r c #6ca60c",
"`s c #4c4644",
"`t c #9c927c",
"`u c #2c224c",
"`v c #34322c",
"`w c #fcf6bc",
"`x c #1c1234",
"`y c #b4aa84",
"`z c #7c766c",
"`A c #54c204",
"`B c #343a3c",
"`C c #242a2c",
"`D c #141214",
"`E c #8c8a6c",
"`F c #8cd614",
"`G c #6c6a5c",
"`H c #dcd2a4",
"`I c #5c5a54",
"`J c #141a24",
"`K c #ace624",
"`L c #7cae0c",
"`M c #5c4a74",
"`N c #fcfedc",
"`O c #74727c",
"`P c #bcb694",
"`Q c #3c4244",
"`R c #4c4e44",
"`S c #443e4c",
"`T c #040234",
"`U c #5c564c",
"`V c #7c827c",
"`W c #3c3a4c",
"`X c #74ae2c",
"`Y c #acca3c",
"`Z c #2c2624",
"`0 c #747a6c",
"`1 c #8cfe04",
"`2 c #fcfebc",
"`3 c #2c2a24",
"`4 c #8c8a84",
"`5 c #6c6684",
"`6 c #e4daac",
"`7 c #444a44",
"`8 c #8c826c",
".` c #646a64",
".. c #aca284",
".# c #54524c",
".a c #fceeb4",
".b c #74725c",
".c c #342e34",
".d c #343244",
".e c #b4b28c",
".f c #1c1614",
".g c #9cde3c",
".h c #746e5c",
".i c #1c1a1c",
".j c #34ce04",
".k c #8cce1c",
".l c #242224",
".m c #64625c",
".n c #d4ca9c",
".o c #241a3c",
".p c #5ca204",
".q c #a49a7c",
".r c #7c7e74",
".s c #3c3a34",
".t c #6c6e6c",
".u c #44423c",
".v c #544e4c",
".w c #7cb62c",
".x c #2c2a34",
".y c #74726c",
".z c #1c1e2c",
".A c #0c0e1c",
".B c #2c8a04",
".C c #ecfe04",
".D c #9ce61c",
".E c #4c4a54",
".F c #242a44",
".G c #34362c",
".H c #6cba1c",
".I c #141624",
".J c #948a74",
".K c #94e21c",
".L c #6c6e5c",
".M c #5c5e54",
".N c #bcfe0c",
".O c #fcfeec",
".P c #ccbe94",
".Q c #140a34",
".R c #7cb23c",
".S c #fcfecc",
".T c #ecdaa4",
".U c #acaa84",
".V c #54564c",
".W c #fceec4",
".X c #1c1e1c",
".Y c #94d224",
".Z c #242624",
".0 c #64665c",
".1 c #3c3e34",
".2 c #44424c",
".3 c #84827c",
".4 c #d4c69c",
".5 c #443694",
".6 c #1c3e2c",
".7 c #6c9234",
".8 c #3c264c",
"#` c #5cb604",
"#. c #749a44",
"## c #f4ee54",
"#a c #349a0c",
"#b c #fcfe4c",
"#c c #7cc60c",
"#d c #9cfe04",
"#e c #444e34",
"#f c #acf234",
"#g c #9cb664",
"#h c #94d634",
"#i c #4c3e7c",
"#j c #341a44",
"#k c #9cee0c",
"#l c #6cb604",
"#m c #649a1c",
"#n c #74aa24",
"#o c #342a4c",
"#p c #649e1c",
"#q c #1c0e44",
"#r c #b4d234",
"#s c #1c164c",
"#t c #94da24",
"#u c #747a74",
"#v c #74a244",
"#w c #0c121c",
"#x c #847e6c",
"#y c #a4ee1c",
"#z c #c4ba9c",
"#A c #948e7c",
"#B c #a4e244",
"#C c #04061c",
"#D c #e4d6a4",
"#E c #8cce24",
"#F c #3c2e4c",
"#G c #bcb28c",
"#H c #140e14",
"#I c #c4fe04",
"#J c #2c3244",
"#K c #4c4e54",
"#L c #a4fe04",
"#M c #7caa24",
"#N c #f4eab4",
"#O c #4c4a44",
"#P c #9c9674",
"#Q c #2c2654",
"#R c #fcfabc",
"#S c #b4ae8c",
"#T c #7c7a74",
"#U c #14161c",
"#V c #747674",
"#W c #3c3e44",
"#X c #2c2e2c",
"#Y c #8c866c",
"#Z c #aca684",
"#0 c #fcf2b4",
"#1 c #747664",
"#2 c #34363c",
"#3 c #8cd214",
"#4 c #d4cea4",
"#5 c #241e44",
"#6 c #a49e84",
"#7 c #444644",
"#8 c #6cbe14",
"a` c #140e2c",
"a. c #ecdeac",
"a# c #ccc69c",
"aa c #dcd6a4",
"ab c #5c4e74",
"ac c #8c8e84",
"ad c #e4deac",
"ae c #2c2e34",
"af c #74766c",
"ag c #2c8e04",
"ah c #948e74",
"ai c #84867c",
"aj c #4c5254",
"ak c #241e24",
"al c #34224c",
"am c #2c2254",
"an c #343234",
"ao c #1c123c",
"ap c #b4aa8c",
"aq c #242a34",
"ar c #14121c",
"as c #8c8a74",
"at c #6c6a64",
"au c #5c5a5c",
"av c #fcfee4",
"aw c #4c4e4c",
"ax c #5c5654",
"ay c #74ae34",
"az c #2c262c",
"aA c #fcfec4",
"aB c #2c2a2c",
"aC c #444a4c",
"aD c #8c8274",
"aE c #aca28c",
"aF c #545254",
"aG c #747264",
"aH c #1c161c",
"aI c #1c1a24",
"aJ c #24222c",
"aK c #646264",
"aL c #7c7e7c",
"aM c #3c3a3c",
"aN c #444244",
"aO c #544e54",
"aP c #343634",
"aQ c #6c6e64",
"aR c #5c5e5c",
"aS c #fcfef4",
"aT c #ccbe9c",
"aU c #7cb244",
"aV c #fcfed4",
"aW c #545654",
"aX c #1c1e24",
"aY c #24262c",
"aZ c #646664",
"a0 c #3c3e3c",
"a1 c #bcb294",
"a2 c #4c4a4c",
"a3 c #9c967c",
"a4 c #fcfac4",
"a5 c #3c3e4c",
"a6 c #fcf2bc",
"a7 c #000000",
"a8 c #000000",
/* pixels */
"aBaB.Z.Z.Z.Z`Z.Z.Z`3.Z`3`C`Z`3`C`3aB`3aB`C.u`3#XaB#X#X#X#X.c#X`v`g.c`v`van.Gan.GanaPaPaP.saP.s.s`B.s.saM.1aMa0a0a0.u#O#O",
"#X.Z.u#Oa2#Oaw`Rawaw.vaw.#`i.#.#.#aW.#aW`I.c.M`I`I`I`I.MaR.M.maR.m.m`d.0.0aZaZataZatatataQ.taQ.y.y.yaf.y#V#Taf#T#VaQa0aw",
"`3.u#O#O#Oaw#Oaw#Oaw.#.V.#.V.#.#aW.#aW.V.M.caRaW`I`IaR.M.mau.M.m`d.m.maKaZ.0ataZat.0.maM#UawaQ.t.y.y`n.y.##U`Q.yaf.r.y`s",
"`3#Oa2`Ra2aw`Raw`I#K#Q`u#s`SaWaW.VaWaW`I.m`Z.m.MaRaR.M.maR.m.m.maK.0aZatatatatataQaZa0a3avaIaQ.y.y#V.y.y`JaS`yaN#V.r.3#7",
".Zaw`Rawawaw.v.Vax`B#3.k.N.6`s`I`I`I`IaRaZ`ZaZaR.m.m.m.m.m.m.m`d.maK.0aZatatataQat.ma0ahaV`cat.t#Vaf.tat`cav#6#7afaLai#7",
"aBawaw.vaw.V.VaWau.F#t`X#b`o#Kau`IaRaR.MatakaQ.m.m.maZaZ.m.0auawaMawaRatat.`.t.maCa0.d#PaV.laZat.yaR#7a2`Cav..aN#V#x`4#7",
"`3.#.#.#`i.m.EaOat#o#l#..C`T.m`G.mau.0.mataX.t.0aZaZ`GaZaZ`B.l.#`E.#aB`7ataZ#7aY.h`a#Xas`NaYaR.man`iah`G#Cav..#7#V.3`4#O",
"`c`s`7.#ax#K`O.L`M`5.p#v#I.5`f#i`M`I`saZ.y.iafataZatatataN#YaVaA.S.S`w.saF#O`B.SaV`N.S.4aV`C`Iaq.4avav.O#z`NaE#7#Tai`V.1",
".Z#7.u.u`R#o#E.B`l#`.w.7#f#d`1#L`A`..8atafaHafatataQataQa0#S..#2ar`taA.q#2`caAaV`aaw#D.S`NaqaN`aava4.v`z.OaV#Za0aZat.yaM",
".Z#O#7#O#O#5#g.p`h.R#n#m.g`Y#B###r#a`q.`#T.f#T.taQ.y.tataZa0`gae`C``aVa.aY`G`N`PaJa0.I#4avaeaP.W.O#2`QaP.1aA.JaPaZ.t#Ta0",
".Z`s#7#Oaw.o#hag#`#8#M#m.Y#y#d`m#k.j#jaQ.r`DaL.y.t.y`naQ.m.x`G#S#N`6aA`6`caG`NahaNaWaNaE.OaBaea6#D`c`s#O`J.Saha0at.y#Ta0",
".Z`R#Oa2`Ra0`W#o`q.d`Lay`p`u#q#5`Caz#W.m.y`D#TaQ.yaf`OaG`W#G`NaV#Ga3.S.T.zasaV#YaM#OaP`a`2`c`caA.4`C`Raw.z.S`taM.`.y#Ta0",
"`Za2`Rawaw.##7`saF`u`b.R.D`x#O.vawa2`I`IaZ.f.`aR.M.m`I.V#U.a`y```J```ka1`J`U#0ahaYa0.I#SaAaYaB.4.SaJ#7aPaM.Sa3a0at.y.r.u",
"`Caw`Rawaw.v.#aWaR#J#c`r.KaY.v`IaR.m`IaRaQ`D.t.m.maZ.m`I`Ja6`6ar#Cap`k#z`C#X#R.a#7.I#S`w`2aY#2#ZaA`P#C`R.S`wa3a0.tafaLa0",
"`3.#aw.#.#`iaFaWaO#e`F.H.D`#.2.maR.M.maR.y#HaGaK.0at.m`dan#P.a`2aA.a`H`HaBaM.L.SaA.S.S.4aV`c.v`B.aaAaV`NaT.S..#Waf`z.r.u",
"aB`7.#.#.#.VaW.V.M#Wao`x.Q#F`d.M.m.maR.m.t#H`naZ.0aZaZ.maWaYaGah`8aB.L.b#O`d.d#7.qah`v#7#SaM`GawaB#x...b#w..`U`d`z#T.t#7",
"`v`3a2aWaW`I`I`Iau.m.m.m.m.m.m.m.maZaZ`Gaf#H`0.hat.yaQaQatat#7a0aN`Iawaj.yat.h`I`Q#7aR.MaN.y.yafat`iaNaFata2.`#T#T.t.ua2",
"anan`g`v#X#X`vae`v`van`vaP`vaP.GaPaP.saPaM.X.u#2.s#2.saM.saMa0a0.sa0a0.u.sa0a0a0.ua0aM.ua0.ua0.u`Q.u`Q.u`Q.u.u.u#7#7`Raw"
};
