/* XPM */
static char *sp3dalignoff_xpm[] = {
/* width height num_colors chars_per_pixel */
"   100    18      256            2",
/* colors */
"`` c #242224",
"`. c #6c6e5c",
"`# c #94927c",
"`a c #444a44",
"`b c #84826c",
"`c c #5c5e54",
"`d c #7c7a6c",
"`e c #aca68c",
"`f c #54564c",
"`g c #646654",
"`h c #7c7664",
"`i c #8c8a74",
"`j c #343634",
"`k c #9c9e84",
"`l c #747664",
"`m c #6c6e6c",
"`n c #544e4c",
"`o c #646664",
"`p c #a49a8c",
"`q c #5c564c",
"`r c #9c9a84",
"`s c #84827c",
"`t c #645e54",
"`u c #847e6c",
"`v c #8c8a84",
"`w c #44423c",
"`x c #2c2e2c",
"`y c #4c524c",
"`z c #746e5c",
"`A c #9c9684",
"`B c #4c4a44",
"`C c #b4ae94",
"`D c #a49e84",
"`E c #94928c",
"`F c #7c7e7c",
"`G c #6c6654",
"`H c #746e6c",
"`I c #6c6664",
"`J c #5c5a5c",
"`K c #646264",
"`L c #4c4e54",
"`M c #2c2a24",
"`N c #8c8674",
"`O c #7c7e6c",
"`P c #545a5c",
"`Q c #948e7c",
"`R c #3c3e3c",
"`S c #5c5a4c",
"`T c #8c867c",
"`U c #646254",
"`V c #948e84",
"`W c #44463c",
"`X c #4c4e44",
"`Y c #a4a294",
"`Z c #6c7264",
"`0 c #949684",
"`1 c #848674",
"`2 c #5c625c",
"`3 c #acaa94",
"`4 c #545a54",
"`5 c #8c8e7c",
"`6 c #3c3a34",
"`7 c #747674",
"`8 c #54524c",
".` c #84867c",
".. c #847e7c",
".# c #8c8e84",
".a c #34322c",
".b c #747264",
".c c #b4b29c",
".d c #a4a28c",
".e c #6c6a5c",
".f c #74726c",
".g c #6c6a64",
".h c #242624",
".i c #6c6e64",
".j c #949284",
".k c #848274",
".l c #5c5e5c",
".m c #7c7a74",
".n c #aca694",
".o c #545654",
".p c #64665c",
".q c #7c766c",
".r c #8c8a7c",
".s c #9c9e8c",
".t c #74766c",
".u c #6c726c",
".v c #646a64",
".w c #5c5654",
".x c #9c9a8c",
".y c #645e5c",
".z c #847e74",
".A c #444244",
".B c #746e64",
".C c #4c4a4c",
".D c #b4ae9c",
".E c #a49e8c",
".F c #94968c",
".G c #6c665c",
".H c #2c2a2c",
".I c #7c7e74",
".J c #5c5a54",
".K c #64625c",
".L c #444644",
".M c #4c4e4c",
".N c #3c3a3c",
".O c #545254",
".P c #848684",
".Q c #8c8e8c",
".R c #343234",
".S c #747274",
".T c #6c6a6c",
".U c #000000",
".V c #000000",
".W c #000000",
".X c #000000",
".Y c #000000",
".Z c #000000",
".0 c #000000",
".1 c #000000",
".2 c #000000",
".3 c #000000",
".4 c #000000",
".5 c #000000",
".6 c #000000",
".7 c #000000",
".8 c #000000",
"#` c #000000",
"#. c #000000",
"## c #000000",
"#a c #000000",
"#b c #000000",
"#c c #000000",
"#d c #000000",
"#e c #000000",
"#f c #000000",
"#g c #000000",
"#h c #000000",
"#i c #000000",
"#j c #000000",
"#k c #000000",
"#l c #000000",
"#m c #000000",
"#n c #000000",
"#o c #000000",
"#p c #000000",
"#q c #000000",
"#r c #000000",
"#s c #000000",
"#t c #000000",
"#u c #000000",
"#v c #000000",
"#w c #000000",
"#x c #000000",
"#y c #000000",
"#z c #000000",
"#A c #000000",
"#B c #000000",
"#C c #000000",
"#D c #000000",
"#E c #000000",
"#F c #000000",
"#G c #000000",
"#H c #000000",
"#I c #000000",
"#J c #000000",
"#K c #000000",
"#L c #000000",
"#M c #000000",
"#N c #000000",
"#O c #000000",
"#P c #000000",
"#Q c #000000",
"#R c #000000",
"#S c #000000",
"#T c #000000",
"#U c #000000",
"#V c #000000",
"#W c #000000",
"#X c #000000",
"#Y c #000000",
"#Z c #000000",
"#0 c #000000",
"#1 c #000000",
"#2 c #000000",
"#3 c #000000",
"#4 c #000000",
"#5 c #000000",
"#6 c #000000",
"#7 c #000000",
"#8 c #000000",
"a` c #000000",
"a. c #000000",
"a# c #000000",
"aa c #000000",
"ab c #000000",
"ac c #000000",
"ad c #000000",
"ae c #000000",
"af c #000000",
"ag c #000000",
"ah c #000000",
"ai c #000000",
"aj c #000000",
"ak c #000000",
"al c #000000",
"am c #000000",
"an c #000000",
"ao c #000000",
"ap c #000000",
"aq c #000000",
"ar c #000000",
"as c #000000",
"at c #000000",
"au c #000000",
"av c #000000",
"aw c #000000",
"ax c #000000",
"ay c #000000",
"az c #000000",
"aA c #000000",
"aB c #000000",
"aC c #000000",
"aD c #000000",
"aE c #000000",
"aF c #000000",
"aG c #000000",
"aH c #000000",
"aI c #000000",
"aJ c #000000",
"aK c #000000",
"aL c #000000",
"aM c #000000",
"aN c #000000",
"aO c #000000",
"aP c #000000",
"aQ c #000000",
"aR c #000000",
"aS c #000000",
"aT c #000000",
"aU c #000000",
"aV c #000000",
"aW c #000000",
"aX c #000000",
"aY c #000000",
"aZ c #000000",
"a0 c #000000",
"a1 c #000000",
"a2 c #000000",
"a3 c #000000",
"a4 c #000000",
"a5 c #000000",
"a6 c #000000",
"a7 c #000000",
"a8 c #000000",
/* pixels */
"`x.H`M.h.h.h.h.h.h.h.h.h.h`M.h.h.h.h.h.h.h.h.h.h.h.h.h.h.h`M.h.h`M.h.h`M.h`M.h.H.h`M.h.H`M.H`M.H.H`x`x.H`x`x.a`x.a`x.a`x.R.a.R.a.R.R`j.a`j`j`j`j`j`6`j`6`j`6`j`6`6`j.N`6.N`6`R`6`R`R`R`R`w`R`R`w`w.L`X.M",
"`x.h`w`B.C`X.M`X`X.M`X`X.C`B.M`X`n.M`n`X`n.M`X`n`n.M`n`8.M.M`8`8.M`8`8`8`8`8.O`8`8.o`f.o`f.o.J`4.J.J.J`c.l`t.l.K.K.K`o.p`o.p.v.p.g.v.e.g.g.g.i.i.g`m`m.i.f.u.f.f.t.t.t`7.t.m`7.m.m.m.m.I.I.I.z`F.I.f`w.M",
"`M`w.C`X.M`B`B.C`B.M`n`B`X.L`B.C`X`X.M.M.M`n.M.M`8`y`X.M`8`8.M`8`8`8`y.O`8`f`8`f.o`8.o`q`4.J`4.J`c.J.l.l`t`2.K.K`2.K`o.p`I.p`I`o.g.e.v.g.g.i.g.i`m.e.p.i`H.i.f.f.f.t.t.f.t`7`d.t.m.t.I.m.m.I.I`s.I`s.f`B",
".H`X.M`B.M`X`n.M`n`X`X.M`B`q.L`B.L`B`8`n`8`y`8`f`8`8.o`8`f.o`8.o.o.o`f.o.o`4.o.J.o.J.J.J`J`c.l`t.l.K`2.K.K.p.p`o.g.g.g.g.g.i.g.i.i`m.i`H.u`H.u`H.p.g.z`I.u.t.t`7.m.t.m.m.I.m.I.m.I.I...I`s`s`F.k`s.`.`.L",
"`M`8.M.M`n`y.M`X`8.M`n.M.L.e`8.L.e.J`B`f`8`f`8.o`8`f.o`q.o.w`4`q`4.J.w.J.J.J.J.J`c.J.l`c.l.l`U.l.K.K.p`o.g`o`I.g.v.g.i.i`m.i`m.f`m.f.f.i.f.u.b.i`7`A`5`#`I`7`d.m.t.m.m.m.m.I.I`F.z.I`F.I`F.k`s`s.``s`v.L",
".H`y`n`y`n`8.M.M`B`X`8`8`a`z.M.C`U`8`y.O`y.M`8`8.o`f`8.o`8`y.o.J.J`c`J`c.J.J.o.o.J.l`2`t.J.K.J.l.p`o.g.e.g.g.g.p.p`I.i.f`o.f.b.f.g.f.f.i`H.i.T.g`N.j.K`m.f.u`H.u.I.I.m.I.t.f.m.I`F...m`d.m.``s.`.`.P.#`B",
"`x`f`8`f`8.M`B`q.J.o`B.M.C`..o`X.J`8`f.M.w.K.J`f.w`8.p.M.y.p`8.J`c.l`U.l.J.o.p.e.K`f.l.J.b.o.g.b.l.K.g.i`m.v.K.t`d.f.i`I.k`o.t.g`1`m`Z.k.i.k.k`m`#`V.t.t`H.`.r.k`m.m.m.u`s`V.I`7.I.f.`.j`s`7.`.``v.r.#`B",
".h`n.M`8`8`B`l.i.e.B.e`y.M`h.w.M`h.K.M.p`h.e.q.b`..M`d`d`l.q`d`f.y.K`2.y.J`O`u.t.k.q`4`o`1.k`1`N.r.K.i`m.f.p`Q`Q.r.E`o.t`D.t.t.T.d`d.T.j.x.E.d.r`r.x.s.f`C.s`A.n.j.t.f`Y`3.x.D.r`7.n`3`Y.D.F.k.#`E.#`E`B",
"``.L`w.A`R`R`w`6`j`a`G.A.L`z`8.C`l.K.M.k`t`y.p.z.o.o`b.B.o.J`b.g.l.p`o`c`d.z`4.J.i`i.K.G.r`O`J.g`#.B`m.t.f`o`k`d`K.v.f.t.d.q`7.i.n`7.f`0.d`m.f`m.x`A`m.m`s.f`m.#`3`7.j.D.z`7`s.I.r.d.v`K.k.s.K.f`m.i`H`j",
".h.L.L.L.L`W`R.M`8`f.J`R`w.J.L`R`t`X.N`c`f.N`S.e`B`B.b.O`8`L`d.p.J.K.K.J.`.B.l.p.l`Q.f.g`0.B.g.v.s.t.t.m.I.f`A`Y.j.m.t`F`3`F.m.f.n.I.f.x`N.f`7.u`Q.j`m`m.g.k`T.r`Q.l.m`1.J.K.p.l.z`1.k.k.k`Q.g.g.f.f`7`R",
".h`B`B.L`B.N`t`S`n`n`U`w.A`g`B.A`g`8`w`t`g.G.p`n`a.L.e`n`X.L.e.J`B`y`8.L`z`4`B`n`a.B`8`8`l.o`8.M`h.w.J.l.l.J`y.y`d`b.J.l`b.y.J.o.k.K`4`d.i.l.K.l`O`d.l.K`i.k.b`d.r.l.z.k.K.v.g.K.`.k.i.f`H.f.v.f.t.t.m`R",
".h`B`B`B.A`B`U.L`R`B`g.A.L.G.M.A.e.O`B.e`y.o`B.L`n`X.B`f`8.M.b.J`8.o.w`y.B.g.M.M.K`d.o.J`d`c.J.o.k.K.l.p.p.y`2.o.o.r.f.p.r.i`4.i.r.g.l`N.t`I.g.K.k`N.l.t`V.l`P.z`Q.l`d`0`I`o.g`m.z.j.l.K`o.K`m.t`7.f.m`R",
"`M.C`B`a`B.L`U`c.J.G`g.L.L.e`n`W`.`c.L.p.B.e.B`z`y.C`l.o`8.M`h.K.O.J.l.O.J`d`h.B`d.e.o`c.k.K.y.o`N.K.K.g`o.K`#.z.z`i.K.l`T.r`N`Q`5.B.l`T`d`o.u`o`T`T`o`I`0`Q`T`#`0`o`I.j`#.r`k.m.p`A`A.r`5.d`o.t`7.t.I`w",
".h`8.C.M.M`B.L`q`f`a.w`B`B`c`B.M.J`8`8.B`a.C.C.e.K.M.p`8.J.o.K`4.J.l`c.l.o`f`o.e.J`4.y.J.B.J`o.l.b`2.v.g.i`K`o.t`d`o`o.i.K.t`d`K`d.g.g.m.i`m.f.i.t.t.g.i.g.z`d.g.I.g.i`o.z.z.f.g`m`o.m.k.z.g.f.q.m.m.m`R",
".H.M`X`8.M.M`n`a.C`8`X.O`f.M.o.w`y`n`4.b.p`8.K.b.K.o`8.l.J.l.o`c.K.l.K.K.K.K.J.l.l.K`o`o.l.v`I.g.K.g`m.g`m.i.i`o`o.i.f.f`m.g.g`m.g`m.t.T.t.q.t`7`H.f.t.t.f`m`m.f.i.q`7.t`m`Z.f`7.t.t.f.i.u`7`7`7.I.m.I.A",
".H`B`y`8`8`8`8`8`8`f.o`8.o.o`q`4.o.o`n.K.e.b.i.K`8`c.l.y`2.y.K.y.K.K.p.K`o.K`o.K`o`I.p.g.g.g.v.i`m.g`m.f.i.f`H.f.f.f.f.f.t.f.f.t.f`7.t.t`7`7.t.q`7`7`7.m.t.t`7`7.q`7.m`7`d`7.m.m.m`7.m`7.m.m.m.m.m.I`m.L",
".a.h`B.O`f.o`4.J`4.J.J.l`c`J.l`t.l`U.l.o.o.o.w`4.K`K.p.p`I.v.v.v.g.v.g.g.i.g.i.i.i`m.i.f.i.f.f.f.f.t.t.t.m.t`7`d.m.m.I.I.m.I.I.I`F.I`F.z.I`F.z`F.I.k.I`F..`s.k`F`s`F.k`F.k`F`s.I`F.k`s`s.k`F.I`s.I.u`R`B",
".R`j`x`x`x.a`x.a`x.R`x.a.a.a.a`x`j.R.a`j.a`j`j.a`j`j`6`j`j`6`j`6`j`6`j`6`j`j.N`6.N`6.N`R.N`R`6`R`R`R`w.N`R`w`R`R`R`w`R.A`R.A`w`R`w`w`w.A`w`w`R.A`w.A`w`w`w`R.L`w`W.A`W.A`W`w`W.A`W.A`W`w.A`W`w.L`w.L`n.M"
};
