/* XPM */
static char *sp3dpaint_xpm[] = {
/* width height num_colors chars_per_pixel */
"   105    28      256            2",
/* colors */
"`` c #040204",
"`. c #848268",
"`# c #e4c214",
"`a c #841604",
"`b c #3c4244",
"`c c #bc9604",
"`d c #ccc295",
"`e c #64625c",
"`f c #440204",
"`g c #1c2229",
"`h c #a49e82",
"`i c #bca67c",
"`j c #ece2ae",
"`k c #e4aa1c",
"`l c #74868c",
"`m c #ece60c",
"`n c #6c521c",
"`o c #647274",
"`p c #2c3232",
"`q c #3c464c",
"`r c #340204",
"`s c #948a74",
"`t c #fcf2b7",
"`u c #14120f",
"`v c #dcd2a1",
"`w c #ec9604",
"`x c #ecf20c",
"`y c #54524d",
"`z c #ecae44",
"`A c #ec9e04",
"`B c #5c669c",
"`C c #6c6a64",
"`D c #2c2624",
"`E c #0c1220",
"`F c #ecc654",
"`G c #acaa94",
"`H c #747261",
"`I c #fcaa0c",
"`J c #8c96b4",
"`K c #343a3b",
"`L c #9c9679",
"`M c #fcfee0",
"`N c #c4be94",
"`O c #dce2e4",
"`P c #8c8e85",
"`Q c #4c567c",
"`R c #f4a104",
"`S c #747674",
"`T c #ecd514",
"`U c #cccccc",
"`V c #d4d2d4",
"`W c #ecfe08",
"`X c #545a57",
"`Y c #141a22",
"`Z c #040a1c",
"`0 c #8c6a2c",
"`1 c #5c4214",
"`2 c #d4ca9c",
"`3 c #aca285",
"`4 c #f4eab3",
"`5 c #84827c",
"`6 c #e4a61c",
"`7 c #a48624",
"`8 c #1c2a3c",
".` c #d4a66c",
".. c #fcfabf",
".# c #e4daaa",
".a c #fcfa0c",
".b c #8c8a78",
".c c #fcc414",
".d c #746a64",
".e c #444a44",
".f c #646264",
".g c #242a2c",
".h c #bcb68c",
".i c #dcbe24",
".j c #34364c",
".k c #94928d",
".l c #747e7c",
".m c #242220",
".n c #f4e2af",
".o c #ecea0c",
".p c #343230",
".q c #e49e14",
".r c #2c2e30",
".s c #fcb608",
".t c #3c3a37",
".u c #94968c",
".v c #5c5a54",
".w c #1c1a1d",
".x c #cc5a34",
".y c #040214",
".z c #948a6c",
".A c #d4c699",
".B c #9c9e98",
".C c #ecb218",
".D c #444a4c",
".E c #94927f",
".F c #5c564c",
".G c #646a74",
".H c #7c7665",
".I c #fcfecf",
".J c #8c8a6c",
".K c #ecce1c",
".L c #44423e",
".M c #645e50",
".N c #1c1a14",
".O c #e4d6a6",
".P c #fc9604",
".Q c #54565c",
".R c #14121c",
".S c #b4b2b4",
".T c #f4f6f4",
".U c #f4fa0c",
".V c #0c0a0c",
".W c #8c7654",
".X c #dcce9f",
".Y c #b4a6a4",
".Z c #8c8674",
".0 c #ecdeab",
".1 c #fcfa14",
".2 c #848a84",
".3 c #ccbe8c",
".4 c #24252c",
".5 c #34363c",
".6 c #ec9e1c",
".7 c #fcbe2c",
".8 c #3c3e44",
"#` c #5c5e5c",
"#. c #fc4204",
"## c #bc4214",
"#a c #74260c",
"#b c #c4a22c",
"#c c #b4925c",
"#d c #e46e44",
"#e c #2c1a14",
"#f c #545244",
"#g c #541604",
"#h c #ecb65c",
"#i c #a4624c",
"#j c #e4b664",
"#k c #bcbcbc",
"#l c #fcba34",
"#m c #e4eaec",
"#n c #7c5a4c",
"#o c #fcf604",
"#p c #fcc23c",
"#q c #d4a24c",
"#r c #fcea04",
"#s c #dcdcdc",
"#t c #ac922c",
"#u c #bcb18c",
"#v c #ecba14",
"#w c #c49e1c",
"#x c #ec9a1c",
"#y c #847e69",
"#z c #6c5e24",
"#A c #fce214",
"#B c #fcb244",
"#C c #fcca04",
"#D c #fcf624",
"#E c #ecda0c",
"#F c #fcfefc",
"#G c #f44a0c",
"#H c #c4be8c",
"#I c #fcbe10",
"#J c #fcee1c",
"#K c #1c1604",
"#L c #b4aa8c",
"#M c #fceeb4",
"#N c #9c9a94",
"#O c #a49e9c",
"#P c #fcb20c",
"#Q c #fcca1c",
"#R c #ecaa1a",
"#S c #eca610",
"#T c #7c7e76",
"#U c #9c9278",
"#V c #8c846c",
"#W c #ecc214",
"#X c #6c665c",
"#Y c #444254",
"#Z c #a49a7c",
"#0 c #7c7a74",
"#1 c #6c6664",
"#2 c #6c6e6c",
"#3 c #7c2204",
"#4 c #eceef4",
"#5 c #fcf2c4",
"#6 c #f49404",
"#7 c #2c2a34",
"#8 c #74746c",
"a` c #fca204",
"a. c #848684",
"a# c #4c4a44",
"aa c #c4b88c",
"ab c #949a9c",
"ac c #1c1e2c",
"ad c #9ca2a4",
"ae c #4c4d4c",
"af c #0c0e1c",
"ag c #b4966c",
"ah c #242a34",
"ai c #342e2c",
"aj c #8c8a84",
"ak c #5c523c",
"al c #f4da14",
"am c #ece2bc",
"an c #6c7274",
"ao c #dcd2ac",
"ap c #fcfeec",
"aq c #ccbe94",
"ar c #f4eabc",
"as c #ecdeb4",
"at c #ecaa24",
"au c #eca61c",
"av c #7c7e84",
"aw c #040604",
"ax c #ccc699",
"ay c #64665c",
"az c #fcf6bc",
"aA c #141614",
"aB c #545652",
"aC c #6c6e64",
"aD c #2c2a29",
"aE c #9c9a7c",
"aF c #8c928c",
"aG c #d4ce9f",
"aH c #aca687",
"aI c #84867c",
"aJ c #fcfec3",
"aK c #fcfe09",
"aL c #746e5f",
"aM c #646664",
"aN c #242624",
"aO c #f4e6ae",
"aP c #343634",
"aQ c #e4a21c",
"aR c #3c3e3c",
"aS c #5c5e54",
"aT c #1c1e20",
"aU c #040617",
"aV c #444644",
"aW c #14161f",
"aX c #f4fe08",
"aY c #0c0e10",
"aZ c #fcfe1c",
"a0 c #eca21a",
"a1 c #fcc634",
"a2 c #fcee0c",
"a3 c #fce60c",
"a4 c #b4ae89",
"a5 c #ecc617",
"a6 c #44464c",
"a7 c #948e74",
"a8 c #eca204",
/* pixels */
".maTaT.N.w.w.w.N.w.N.waA.w.w.N.w.N.w.w.w.waT.N.w.w.N.w.w.N.w.waT.NaT.w.waTaTaTaTaTaTaTaTaTaTaT.maT.m.m.maTaN.m.maNaNaNaN`DaNaDaNaDaD.gaDaDaDaD.r.raD.r.rai`pai`p.p.p.p.p.paPaP.paP.taP.taP.t.t.t.taRaR.taRaR.La#ae",
"aT.N.raPaPaPaP.paPaPaR.t`KaPaPaPaPaPaPaPaP.taPaP.t`K.t`K.t.t`K.t.t.t.taR.t.taR.taRaR.LaR.L.t.LaR.L.LaVaVa#aVaea#aeae#fae`y`y`y`yaB`y`yaBaBaB.vaS.vaSaS.M#``e`e`e`eayayaM`C`C`CaCaC#2`H#8#8#8#8`S#8#0#8#T#T#0#8aRae",
"aT.paP.taPaP.paP`K````````aw.g.t.p.paPaPaPaP.t.t`K.t.t.taPaR.t.taR.taRaR.taRaRaR.L.taR.LaR.L.L.L.LaVaVa#aVa#a#aeae#fae`y`yaBaB`y`yae`paTaRaB.F.vaS#``e#``e`e#`ayayaM#1aMay`CaM`CaCaC#2#2aL#8#8#8#8`S#0#0#0#T#T#8aV",
"aT.taPaP.t.paP.L``#Y#DaZ#b`1````aWaR.t.taP.t.t.t.t.t.taRaRaRaRaRaRaRaR.LaR.L.L.L.L.L.L.L.L.LaVaV.ea#a#a#aeae#f`y`yaBaBaBaBaB.v`XaB`p.Haa.LaV.v#``e`e`eayayaM`C`C`C`CaCaC`CaC`C`C`C#2aL`S`S#8`S#0#0#0#0#T#T#y`5`5aV",
"aT.taP.taPaP.t```Q#I#o`WaKaK.K`7.N````aDaR.taP.t.taRaR.LaR.LaR.L.L.L.L.L.L.L.L.L.L.eaVa#aVa#aVa#a#aeaeae#f`yaBaBaB.v.v.vaSaSaS.v.vaAaO`2.3aNaSayaMay`C`C`C`C`CaCaCaC#2aC#2`yaT`YaR#2#8#0#0#0#0#0#T#T#T#T`5#T`5.2a#",
"aT.t.t.taPaR``.G`i`R.C#W`m`WaXaKa2.i`n`````YaRaVaRaR.LaR.L.L.L.L.L.L.L.e.La#.ea#aVaVa#aVa#.ea#a#aeae#faB`yaBaBaBaB.v`X.v#``e`e#`aS.m`vaz.HaR`eaM#XaMaMaM`CaM`CaC`C#8#8aC`C`g.I.I#U.L#2#8#0`S#T#T#T`5`5`5`5aI`5.baV",
".m.t.t.t.t.L``.2#q#6a0.q#x#R`T`xaX.a.a#J#t#K````aP.L.L.L.L.La#.ea#.ea#a#a#.ea#.ea#a#.L.L.LaR.t.ea##f`yaB`XaB`y`y#f`ba#aB.vaS`e`e#`ae.4.maR.v`eaMaCay#X#``eaS`Xay`C#2#2`C.v.4.IaJ`h`K`e#8#T#T`5#T`5aI#TaIaIaIa.`Pa#",
"aTaRaRaR.taRaYaB#j#6.qa0auaQ#x`6#W#E`m`m#r.aa5#z`````ga#.ea#.ea#a#a#aea##faea#aP`u`E.p.gaA.r.raAaD.e`y.FaB.F.t`g.Ra#aPaW.4a##`ay`eaB.raT.t#`ay.v#7`Y.L.L.4.r.L.w.8ay#8`y`g.y.IaJa7aW`g.5aC#T`5aIaIaI.Za..Zajaj`Pa#",
".m.LaRaRaRaR.L``aB#Ba`#6`wauaua0.qa0.Ca5`T`Tala3#A`caD.m.ea#a#aeaeae#f#faeaeaeaA.A.XaT.F.h.3`daa`.aWa#aB.v.g.MaqaOaOaO`t.A.ga#`e`eaD.#.I`s.LaM.r`j`M.e.v`4.IaJ.I.baD.f.4`M`Maz`t.I.Iap`4.t`5`5aI.Z.2ajaj.2`Paj.ka#",
"aT.LaR.L.LaRaR.L````aL.`#la``w.q#R#RaQa0`k#v#W`##C.7#w```y.eae#f#f`yaeaBaBaBa#aW`d#u`L.3`d`2.Aaa.X`LaNaB.t#y#M`jaz#u.##M.0`taW#``e`p.AazaEaR#`.r`v..#L.IaJ.I.Iaz.IaH`b.r`M.I#5`t.I`M`Mar.j`5aIajajajajaj`P`P`P.Eae",
".m.L.L.LaR.L.LaRaV.r````.m.W#h#P.P`A`6au#S`6`6.s`F`BaR``.e`y`y`yae`X.F`X.FaBa#`Y.Aa4.3ax.LaY.g.3#HaO.ra#.8.J.naLaW.raTaLazaz#yaV#`.r.XaJaE.t`e`p.O`taJ.I`CaWaV.IaJ.I#7.v`paU`M.I#U`Y#7aR#8.2.baj`P`P`P`P`P.E`P.uae",
"aNaV.L.L.e.L.LaV.LaV.e.LaT````.Lag#pa``R`6#R#S.can`J#Fa.``aY.FaB.v.v`X.v.vaBaeaA`vaa.h.NaP.L.p.4aO`v.zaPaS.L.g`baeaVaP`Y#M..`h.t#`.r.#.I`h.8#`.r.0aJ.I.L.t`yaP.H.I`M`KaS.v.rap`M`GaR`C#T.Zaj`P`P`P`P.EaF.k.k#N#N`y",
"aT.taR.L.La#a#a#.ea#a#aVa#aeaPaW``aUaL`z#Ia`a8#Q.F.ja.#F#k.f.V#``XaSaSaS`e.v#f`Y.O`2.H.gaeaBaeaT`d.#`d.g.v`e#`.L.p`paD`ZaxaJ#Z.8`e`p.0.I`3`b`e.pas.I#U.5aM#2`y`C`M`M`H.F.f`p`M.IaHa6#0.2`P.k.E.k.u#N.u#N`Paj`5aIaR",
".N.taPaPaPaPaRaR.L.LaVa#.ea#aeaeaeaR`````8#c.7#P#I`````u#mav```eaS.M`e`e`eaS`yaT.0.X`.aiaSay.v.4`daOax#7aSaeaT#TaG.X.I`MaJaJ`3aR`e`pas.I`3.L.f.5am`MaH`b#0#0`C.5`M`MaL`X#2.p#F`M#LaeaI.k.kaj.2`5#T#0#8#2#8#8#8#0.L",
"aTaR.t.taRaR.taR.taRaR.taRaRaR.L.L.L`yae.r`````0ak`````P.S``aB`e#`aMayaMaM`eaBaTaO.#.J.p`eay`e.r`h#M.X.rae.4..aJ.I`MaJ.O`t.I`3`b`e`Kam`MaHa6`C`Kam`M`Ga#`5a.`S.rap`M`CaB`eah.IaJ#Z`K`C#2#8#8#8#8#8`S#0#0.H#0#0#T.L",
".m.taR.t.taRaRaR.L.L.L.L.L.LaV.LaR.e.r````.taV```E.L``#F`K``aS`y.vaS#``eay`e`yac#M.0#V.p#`ayaS.raG..`v.5.5`j.I.IaL.4.5`Eam`M#L#Yay.5.n.IaH.L#`.p`j.I#Z`K#2aL#`aT..`t.FaV.F`g.I`t`L.5#1#8#8#0#0`S#T#0#0`S#T#0#T#T.L",
"aTaRaRaRaR.L.L.LaR.L.LaV.LaV.L.La#aD``a.anaw``aNaB``#N#s```eaeaeae`y`y`y`y`yaVaW#H#L.z`Z.t.LaPaW`vaq.HaD`g.O.A`C`Y.p.raW#u`j#V.paeaD`N#M.ZaP`yah`d#Ma7.taM#2`e`g.IaJ`eaV#`.4.I..#U.p#`#8`S`S#0#T#0#0#0#T#T#0#0`5`b",
".m.LaR.LaR.L.LaR.LaV.LaVaVaVaVaV`y``.S`O`o.lab.p````#F`X`uaBaeaB.v`X.F`X.vaBa#`Y`2#uax`LaY.4afaE.A.0#f`KaTaz.O#Z`E`paTaL`j`4a7`KaB.r.Aaz.E.t`X.r.XaJ`L.t#2aLaM`gaJaJ.Ma##`.r`jaJax`E.8.t#8#0#0#T#T#T#T#T#T#T#TaI.L",
"aT.LaR.L.L.L.L.L.eaVaVa#a#aVaVaeaYaV.T.v``.8ad#F`U#k#4``aB`yaBaB.F.v.v.v.vaBa#.w.X.h.3.Aax.Haa.X`v`daT`y#7.h.##M`3.H`3aJaO#M.E.t#`.raG..`L.8#`.r.XaJ`L.8#8#8`C`g.I.I`eae`C.5.Oaz.I.OaH.A.8`S#T#T`5#T#T#T`5#T`5`5aV",
".m.L.L.L.LaVaVaVa#aVa#a#aVa#aeaA```V#s``aeaA``aT`U#F`Saw.vaBaBaS.v.v#`#`#`.vae`Y.O`d#y.O`v.0`v`j.A`Yae#`a#aRaJ`4azaJaJ.OaH.I`3aR.f.r`j.I`3.8`C.r`j`MaH.8#8`S#2aT`M`M#X`XaC`y.v`MaJ.I`MaJ`p#T`5#y#T`5`5#T`5#T`5`5aV",
".maVaVaVaVaVaVa#aVa#aea#aV#faYai#1#FaF``ae#fae.r``````aSaB.v.v#`#`#`#`#``eaS`yaT.#.X.H`Y`.#V.z#faTaeayaMaM.L.ma7#U#ZaLah`y#L#f#`aC`y`Ha4.F#`aC`y.H#u.F`e#0#0#0.L#Z#u.t#2`S#8.e.t#u`3a4aR.f#T`5av`5#T`5`5#T`5#Ta.aV",
".maVaVaVaVa#a#a#a#aea#aea#aVaw#d`a`l#O``aBae`y.vaSaV#`.v.v#`#`aS`e#``eay`e#``y.w`j`v#VaN.paPaPa6`eaM`CaL#2`C#`.8.t.t.DaS.F`b#`#8#8`S.F#Yay#8`S#0.Q.LaM`S#T#0#0`Saea6#8#0#T#T#0.f`b.La6`C#T#0`5`5`5`5#T`5`5`5`5.2a#",
"aNa#aVa#a#a#.ea#aeae#fa#.v``#0#.##`f#n``aS`yaBaB.F.vaS.v.v#``e`e#``e`eayaM`eaB`Y.n.O#V`paB`e`eaM`CaC#8#8anaL#8#2#2#2aLan#8`S#0#0`S`S#0`S#0#T#0`S#T#T#T#T#T#T#T#T#T#T#T#T`5#T#T#0#0`S#T#0#T`5`5aIaIaIa.`5a.a.`5aIaV",
"aNa#a#aVa#a#aeae#f#faeaeaV``.x#G#g#a`qaP`XaB.vaS#`#`#`#``e`e#`ayayaMayaM#1`eaSaT`4.#.J.t`e`CanaCaL#8#8#8`S`S`S#0#8#0#0#T#0#0#T#0#T#y#T#T#T`5#T`5`5#T`5#T`5`5`5`5`5`5`5`5`5aIaIaI`5aI`5`5aI`5aI`5a.aIaIa.`5aIaIaja#",
"aNa#a#aeaeae#f#faeaeaBaB`y``#i#3`r.Y``#`.F.v#`#``e`e`e`e`e`eaMaM#XaM#1aM`CaM.f.w.IaJ#V.8`CaC#8#8#8#8#8`S.H#0#0#0#T#T#T#T`5#T#T`5#T`5`5`5`5`5#TaI`5`5`5`5aI`5aIaIaIaIa.aIaIa.a.aIa.aIa.aIa.aIa.aIaI`5a.aIaIaIajaIaV",
"aDaVae#fae#fae`yaBaB`yaB.vaP````````aRaS.v#`#``e#``e`eayaM`eaMayaM#1aMaC`C`CaMaeaTaT.taMaC#8#2#8#8#8`S`S#0`S#0#0#T#T`5#0#T`5#T`5#T`5#T`5#T`5`5#TaI`5aI`5a.`5aI`5a.`5aI`5aI`5.Za..Za..Za..Za..Za..Za..Za..Za.aj#0a#",
".raDaV`yaBaBaBaB.vaB.v.v`X.M`eaM`Cay`e#`ay`eayay#1ay`CaM`CaCaC`CaC#8aC#2`HanaC#8aC#2#8#2#8`S.H#0#0#0#T#T`5#T`5#T`5`5`5aIa.`5a.aIaja.ajaIaj.2aj.2aj.2ajajajajajajajaj`Paj`Paj`P`P`P`P`P`P`P`P`P`P`P`Paj`P`Paj#0.L`y",
".p`p.raD.r.r.rai.rai`p.r.p.r.p`p.p.p.paP.paPaPaPaP`KaP.taP.taP.t.t.t.t.t.t.taR.taR.taRaRaRaRaRaR`b.L.L.L.L.L.LaVaVaV.LaVaVa#aVa#.LaVaVaVaVa#aVa#aVa#aVaVa#.e.ea#aV.ea#aVa#a#a#a#a#a#a#a#a#a#a#a#a6a#a#a#a#a6aeaB`y"
};
