/* XPM */
static char *sp3drandom_xpm[] = {
/* width height num_colors chars_per_pixel */
"    52    18      256            2",
/* colors */
"`` c #040204",
"`. c #84826c",
"`# c #3c423c",
"`a c #ccc294",
"`b c #646254",
"`c c #1c2224",
"`d c #aca27c",
"`e c #ece2ac",
"`f c #545244",
"`g c #74725c",
"`h c #2c3234",
"`i c #9c9274",
"`j c #fcf2bc",
"`k c #0c121c",
"`l c #bcb28c",
"`m c #545a54",
"`n c #4c4a3c",
"`o c #8c8a6c",
"`p c #dcd2a4",
"`q c #6c6a54",
"`r c #242a2c",
"`s c #7c7a64",
"`t c #343a3c",
"`u c #fcfedc",
"`v c #141a24",
"`w c #acaa8c",
"`x c #444a44",
"`y c #d4ca9c",
"`z c #fcfabc",
"`A c #645e54",
"`B c #8c826c",
"`C c #44423c",
"`D c #242224",
"`E c #5c564c",
"`F c #9c9a7c",
"`G c #5c5a4c",
"`H c #6c6a64",
"`I c #6c6654",
"`J c #b4a684",
"`K c #74726c",
"`L c #34322c",
"`M c #14121c",
"`N c #c4ba8c",
"`O c #544e44",
"`P c #8c8e84",
"`Q c #2c2a24",
"`R c #847e64",
"`S c #3c3a34",
"`T c #5c5a5c",
"`U c #040a14",
"`V c #aca68c",
"`W c #f4eab4",
"`X c #545254",
"`Y c #4c4a4c",
"`Z c #948a74",
"`0 c #e4daa4",
"`1 c #1c1a24",
"`2 c #dcce9c",
"`3 c #fcfecc",
"`4 c #44464c",
"`5 c #242634",
"`6 c #34363c",
"`7 c #3c3e44",
"`8 c #84827c",
".` c #646664",
".. c #aca67c",
".# c #746e5c",
".a c #7c7a74",
".b c #fcfeec",
".c c #d4ce9c",
".d c #44463c",
".e c #242624",
".f c #a49a7c",
".g c #5c5e4c",
".h c #34362c",
".i c #ccbe94",
".j c #2c2e34",
".k c #3c3e34",
".l c #04061c",
".m c #ccc69c",
".n c #64665c",
".o c #f4e2ac",
".p c #54564c",
".q c #7c765c",
".r c #9c9674",
".s c #fcf6b4",
".t c #0c1624",
".u c #4c4e44",
".v c #6c6e5c",
".w c #b4aa84",
".x c #fcfebc",
".y c #8c866c",
".z c #6c6e64",
".A c #74766c",
".B c #14161c",
".C c #c4be9c",
".D c #2c2e2c",
".E c #948e6c",
".F c #ecdea4",
".G c #1c1e24",
".H c #a49e7c",
".I c #04020c",
".J c #84866c",
".K c #3c4244",
".L c #ccc29c",
".M c #64625c",
".N c #1c222c",
".O c #aca284",
".P c #54524c",
".Q c #747264",
".R c #0c1224",
".S c #c4b694",
".T c #4c4a44",
".U c #8c8a74",
".V c #e4d6a4",
".W c #6c6a5c",
".X c #242a34",
".Y c #7c7a6c",
".Z c #fcfee4",
".0 c #141a2c",
".1 c #d4caa4",
".2 c #444244",
".3 c #24222c",
".4 c #5c5654",
".5 c #5c5a54",
".6 c #6c665c",
".7 c #343234",
".8 c #c4ba94",
"#` c #2c2a2c",
"#. c #fceeb4",
"## c #5c5e5c",
"#a c #545654",
"#b c #4c4e4c",
"#c c #84867c",
"#d c #7c7e74",
"#e c #f4e6ac",
"#f c #b4ae84",
"#g c #847e6c",
"#h c #3c3a3c",
"#i c #040a1c",
"#j c #fcfed4",
"#k c #aca684",
"#l c #fcfef4",
"#m c #d4cea4",
"#n c #444644",
"#o c #24262c",
"#p c #5c5e54",
"#q c #343634",
"#r c #3c3e3c",
"#s c #9c967c",
"#t c #fcf6bc",
"#u c #fcfec4",
"#v c #8c8674",
"#w c #6c6e6c",
"#x c #747674",
"#y c #141624",
"#z c #948e74",
"#A c #ecdeac",
"#B c #1c1e2c",
"#C c #a49e84",
"#D c #000000",
"#E c #000000",
"#F c #000000",
"#G c #000000",
"#H c #000000",
"#I c #000000",
"#J c #000000",
"#K c #000000",
"#L c #000000",
"#M c #000000",
"#N c #000000",
"#O c #000000",
"#P c #000000",
"#Q c #000000",
"#R c #000000",
"#S c #000000",
"#T c #000000",
"#U c #000000",
"#V c #000000",
"#W c #000000",
"#X c #000000",
"#Y c #000000",
"#Z c #000000",
"#0 c #000000",
"#1 c #000000",
"#2 c #000000",
"#3 c #000000",
"#4 c #000000",
"#5 c #000000",
"#6 c #000000",
"#7 c #000000",
"#8 c #000000",
"a` c #000000",
"a. c #000000",
"a# c #000000",
"aa c #000000",
"ab c #000000",
"ac c #000000",
"ad c #000000",
"ae c #000000",
"af c #000000",
"ag c #000000",
"ah c #000000",
"ai c #000000",
"aj c #000000",
"ak c #000000",
"al c #000000",
"am c #000000",
"an c #000000",
"ao c #000000",
"ap c #000000",
"aq c #000000",
"ar c #000000",
"as c #000000",
"at c #000000",
"au c #000000",
"av c #000000",
"aw c #000000",
"ax c #000000",
"ay c #000000",
"az c #000000",
"aA c #000000",
"aB c #000000",
"aC c #000000",
"aD c #000000",
"aE c #000000",
"aF c #000000",
"aG c #000000",
"aH c #000000",
"aI c #000000",
"aJ c #000000",
"aK c #000000",
"aL c #000000",
"aM c #000000",
"aN c #000000",
"aO c #000000",
"aP c #000000",
"aQ c #000000",
"aR c #000000",
"aS c #000000",
"aT c #000000",
"aU c #000000",
"aV c #000000",
"aW c #000000",
"aX c #000000",
"aY c #000000",
"aZ c #000000",
"a0 c #000000",
"a1 c #000000",
"a2 c #000000",
"a3 c #000000",
"a4 c #000000",
"a5 c #000000",
"a6 c #000000",
"a7 c #000000",
"a8 c #000000",
/* pixels */
".D.D`Q.e`Q`r`Q`Q`r`Q#``Q#`.D#``Q.D.D.D.D`L.D.D`L.D`L.7`L.7`L.7.h.7.h.7#q#q`S#q`S`t`S`S`S`S#h#r`S#r`C#n.T",
".D`Q.2#b.P`O#b`X.P.P.p`X.p.p#a.4`m.5.5.5.5###p##.M###p.M##.n.n.``H`H.``H.z`H.z#w.##w`K`K#x.A.A.a#x.z#r.T",
"#`.d`O#b#b.P#b.P.P`X.p`X.p#a.4`m.4.5`m.5###p`A#####p.M`Y##.M.M.`.n.6`H`H`H.z#w#w#w`K#w.A`K`K#x.A.a.a.z#n",
"`Q#b.P#b.P.P.P#b#a.p#a.p#a.5`m.5.5.5#####p##`A.M`A.M#r`G.7.M.n`H.``H.`#w.z#w.#`K#w`K.A.A`K#x.Y.a#x#d#g.2",
"#`.P#b.P#b#b#b.P.P#b.P#a#a.4#a.5#a.5`T#p`T`A##.`##`T`v#j`G#b.M.``H.`.z`H#w#w#w`H#w.z#w`K`K#x.A.a#d#d`8#n",
"#`.p#b.P#q#n.7#q#b#n.j`L.2.p#a#n`C#b.7#h######.5`7#q.G#u`f`Y#p#a.2#r#a.``H.5`4###r`Y.n##.K#b#x.a.a#d#c#n",
".D.p.P`6`q.D.#.##o#q.y`R#n.D.2.g`A`c#z.#.e`X.T#o.Q.H`k`3`E#n`6#n.E.O.2#q#a`G#z`r`l`.`1`6.8.y.j#w.a`8#c#n",
".D#a#b`D`J`N`2#e.k.x#f`a#.`I.3`o`0`z`y`z#s`h`v#A`z.V.x`j.5.7.v`u`W`W`u#v`r`J`3`u#..Z`y.b#t.b.S.2#x`8`P.T",
"`Q.P.P#o.H`0`M`v`C.7`M``.8#C`v.y.o.M`U`Z`3.B`s`3.T#y.Q`3#p.B#j`y`M.t.c`u`M#C#j#g#i.S.Z#g.l.C`u.j#d#d#d#h",
".e.T#r`c`d.#.D#n.D.u`Z.L.c`N.B#z.m.G.7`g`3`M#s`3.G`S`v#j.p.5`u.P#r#r.M.Z#r`F.Z#B.7#C#l.N#h.O`u.G.M.`.A#h",
".e#b`C.G`i`b.e.7`O`W`F.q`y.i`v`i`2.j`7.p#j`k#s`3.N#r.0`u.5`b`u.4`#.2.W.b`5`V.b.j`t#C`3#o`h.y#u.G.M`H.a#r",
"`Q`Y.T.G.r.#.D.e.E#k``.I.w#k.B.y.L.D#n`G#j`1`.`u.4.G#g`u.n#y.Z.i.0`v`y#u`M#z#u`c.7`o#u.3`6#z`3.N.`.z#x#r",
"`Q#b.T.G`d.q.D.7`E`2.w.C.i.w.B`.`N.3#r.T.s`1`c`p.F`a`e#e.P.3`Z.x`2`p`3`E`r`i#j.3#h`F`u`D#r.f`u.G`H`K.a#r",
"#`#b.u`t`I.k.2.u`r`O`R`f.d`A`t`n.#`7.P#r`B#q.2`c`.`B#o`o`C.P.X#r.f`Z`L`t`X.P.r`7`m`f#s#r`m.p.f`7`K#w#d`C",
"#`.p`O.P#q.T.P#b`X.k`h#r`C#r#a`Y`####p.5#r###p.5#h#h#a#h.5.M.M.p#h#r`T.n.`#p.2.z`H###n`K`H.M`4.A`K.A.a#r",
".D`x#a#a.p#a.p#a.4#a.4.p.5.5.5##.M.M.M##.`.M.M.M.n.n##`H.`.``H.``H.`.z`H.z#w#w#w.#`K`K#w`K`K`K.A#x.a`H#n",
".7`Q#b`E.5.5###p##.M##.M.M.`.n.6.`.n`H`H.z.z#w#w.z#w#w.z`K.A`K.A.A`K#x.A.a.A.a.a#x.a.a#d.a.a#d#d.a.z#r.T",
"#q#q`L.j`h`L`L.7`L`L#q#q.7#q#q#q`S#q`S#q`S`6`S`S`S#h.k#h#r#h#r.k#r#r`C#r#r`C#r#r`C#r`C#r`#.2`C.K`C#n.T#b"
};
