/* XPM */
static char *sp3dclr_xpm[] = {
/* width height num_colors chars_per_pixel */
"    60    18      256            2",
/* colors */
"`` c #04020c",
"`. c #84826c",
"`# c #84320c",
"`a c #244254",
"`b c #442e2c",
"`c c #546664",
"`d c #0c2a44",
"`e c #ccc294",
"`f c #c44604",
"`g c #2c2624",
"`h c #644a54",
"`i c #a4a284",
"`j c #ece2ac",
"`k c #847e6c",
"`l c #6c726c",
"`m c #34362c",
"`n c #3c423c",
"`o c #a4320c",
"`p c #ec4e14",
"`q c #0c121c",
"`r c #fcf2b4",
"`s c #4c524c",
"`t c #0c324c",
"`u c #ac4a14",
"`v c #949274",
"`w c #c45e0c",
"`x c #54524c",
"`y c #4c4664",
"`z c #6c665c",
"`A c #3c4a4c",
"`B c #2c2e2c",
"`C c #643a34",
"`D c #bcb28c",
"`E c #1c1214",
"`F c #1c2224",
"`G c #3c363c",
"`H c #fcfedc",
"`I c #545a54",
"`J c #dcd2a4",
"`K c #747a6c",
"`L c #242a24",
"`M c #a43e14",
"`N c #8c8a6c",
"`O c #2c2e3c",
"`P c #4c3a2c",
"`Q c #c45214",
"`R c #fcfabc",
"`S c #bc4e0c",
"`T c #9c9a7c",
"`U c #dc6a04",
"`V c #6c6e5c",
"`W c #f4eaac",
"`X c #4c4644",
"`Y c #d45a0c",
"`Z c #4c4a44",
"`0 c #c4ba8c",
"`1 c #5c5a4c",
"`2 c #b44204",
"`3 c #040a14",
"`4 c #646254",
"`5 c #2c3a4c",
"`6 c #44423c",
"`7 c #e45e1c",
"`8 c #141a1c",
".` c #1c363c",
".. c #bc460c",
".# c #1c1a1c",
".a c #242224",
".b c #747a74",
".c c #94420c",
".d c #344244",
".e c #d4ca9c",
".f c #b4aa84",
".g c #34322c",
".h c #3c3e3c",
".i c #e4daa4",
".j c #fcfecc",
".k c #746e5c",
".l c #8c866c",
".m c #54322c",
".n c #d44e04",
".o c #342a2c",
".p c #747264",
".q c #9c9274",
".r c #5c564c",
".s c #7c361c",
".t c #1c2a34",
".u c #948a74",
".v c #fceab4",
".w c #dc6214",
".x c #ccbe94",
".y c #5c5a5c",
".z c #646a64",
".A c #241e1c",
".B c #242634",
".C c #244a64",
".D c #2c2a34",
".E c #7c423c",
".F c #aca284",
".G c #34363c",
".H c #141214",
".I c #4c5a5c",
".J c #143a54",
".K c #54564c",
".L c #444a44",
".M c #2c322c",
".N c #6c3a3c",
".O c #3c3a44",
".P c #fcfef4",
".Q c #ac4218",
".R c #34323c",
".S c #443a44",
".T c #d45214",
".U c #fcfec3",
".V c #a49a7c",
".W c #dc5e14",
".X c #4c4e4b",
".Y c #c4ba9c",
".Z c #b43e1c",
".0 c #140e14",
".1 c #646664",
".2 c #444644",
".3 c #fc6a04",
".4 c #bc4a1c",
".5 c #242627",
".6 c #7c7a74",
".7 c #844a3c",
".8 c #ecdeaa",
"#` c #747674",
"#. c #bc5e2c",
"## c #8c3e2c",
"#a c #f4521c",
"#b c #744e4c",
"#c c #ec6a14",
"#d c #944e2c",
"#e c #fc6624",
"#f c #4c3634",
"#g c #a43a04",
"#h c #e4560c",
"#i c #ac4a2c",
"#j c #cc4a0c",
"#k c #24364c",
"#l c #5c362c",
"#m c #2c424c",
"#n c #5c625c",
"#o c #d4c69c",
"#p c #6c4e5c",
"#q c #f4e2ac",
"#r c #cc620c",
"#s c #c4b694",
"#t c #0c0e1c",
"#u c #dccea4",
"#v c #bcae8c",
"#w c #84827c",
"#x c #3c464c",
"#y c #c45624",
"#z c #bc521c",
"#A c #d45a1c",
"#B c #343a4c",
"#C c #1c1e2c",
"#D c #344654",
"#E c #54363c",
"#F c #7c7a68",
"#G c #242a38",
"#H c #c44614",
"#I c #14324c",
"#J c #b44a14",
"#K c #6c6e6c",
"#L c #141a2c",
"#M c #746e6c",
"#N c #ac3a04",
"#O c #040614",
"#P c #ccc69c",
"#Q c #2c2a28",
"#R c #fcf6bc",
"#S c #4c5654",
"#T c #c46204",
"#U c #6c6a63",
"#V c #bcb694",
"#W c #1c161c",
"#X c #3c3a37",
"#Y c #545e5c",
"#Z c #8c8e74",
"#0 c #2c323f",
"#1 c #d45e14",
"#2 c #c4be94",
"#3 c #5c5e54",
"#4 c #040e1c",
"#5 c #64665c",
"#6 c #bc4a14",
"#7 c #1c1e24",
"#8 c #944614",
"a` c #e4deac",
"a. c #74766c",
"a# c #9c967a",
"aa c #fceeb4",
"ab c #14161a",
"ac c #444e4c",
"ad c #443e40",
"ae c #a49e7f",
"af c #b44220",
"ag c #7c7e75",
"ah c #f4e6b4",
"ai c #643e34",
"aj c #dcd6a4",
"ak c #a44214",
"al c #c45614",
"am c #2c3e4c",
"an c #948e74",
"ao c #5c5e5c",
"ap c #aca684",
"aq c #343a3c",
"ar c #143e54",
"as c #243a4c",
"at c #2c464c",
"au c #84867c",
"av c #040214",
"aw c #a4a28c",
"ax c #343634",
"ay c #3c4244",
"az c #fcf2bc",
"aA c #4c5254",
"aB c #545254",
"aC c #2c2e34",
"aD c #1c222c",
"aE c #fcfee4",
"aF c #545a5c",
"aG c #242a2c",
"aH c #8c8a74",
"aI c #fcfac4",
"aJ c #6c6e64",
"aK c #f4eab4",
"aL c #4c4a4c",
"aM c #c4ba94",
"aN c #5c5a54",
"aO c #64625c",
"aP c #444244",
"aQ c #141a24",
"aR c #bc4614",
"aS c #24222c",
"aT c #d4caa4",
"aU c #343234",
"aV c #3c3e44",
"aW c #fcfed4",
"aX c #746e64",
"aY c #8c8674",
"aZ c #d44e0c",
"a0 c #74726c",
"a1 c #9c927c",
"a2 c #fceabc",
"a3 c #241e24",
"a4 c #545654",
"a5 c #444a4c",
"a6 c #2c3234",
"a7 c #6c3a44",
"a8 c #fcfefc",
/* pixels */
"#Q#Q.5.5.5.5`g.5.5#Q.5#Q`L`g#Q`L#Q#Q.5aP`g`B#Q`B`B`B`B`B`B.g`B.g.M.g.gaU.gax.gaxaUaxaxax`Gaq#Xax#X#X#X#X.h#X.h.h`6`6`Z`Z",
"`B.5`6`Z`Z`Z.X.X.X.X`x.X`x.X`x`xaB.KaNaUaNa4aNaNaNaNaN#3.yaNaoaoaOaoao#5#5.1`z.z#U#UaJaJaJaJaXa0`la0a.#`a..6a.ag.6#K.haL",
"#Q`6`Z`ZaL.X`Z.X`x.X.X`x`x`x`I`xa4`xaN#Qao`Ia4a4aNaNaoao#3ao`6.H.5.XaOaO.1.1.1#U.1#U#U#UaJ#K#Ka0a0a0a.a.a0.6#`.6.6aga0.2",
"#Q`ZaL.X`Z.X`x`I.D`x`x`x#na4#DaBaNa4ao#QaOaN#3#3aoao#3aO#3aNab.U#P.5ao.1#U#U#UaJ#U#Ka0a0#Ka0a0a.a.a.#`.6.6.b.6.6agag#w.2",
".5.X.X.X.X`I#n`G`G`s.K.1`5#b`#`a`s#3#5`g.1ao#3.y#3ao`4ao.y.r#Laa#s#Qao`z.1.1#U#U#U#Ka0aJa0#KaX#Ka0#`#F#`.6.6a..6.6.6#w.2",
"#Q.X.X.X.ra4.C#d#z`dao`c#p#6`2.casaO.1a3#UaoaO.yaNaL.h`Za4`x`F`raMaG.y#5#U.X.haAaOaJ#K#K#KaN.Xa5aNa0a0a0a0`I#U#naP#K`..2",
"#Q`x`x`x#3#B`Q#j#e#8.J`y#.`7`Y.n#GaN#Ka3#UaOao.X.a`n.k`x.5aVaS`R`e.D`I`x#7.ran.raGaPaJaOaG.X.kaY.XaCaO#K.2aX#X.X.Y`n#KaL",
"`F`X.L`xaF.S`o`Y.Z.3.7#1`w.w#c`C#Q.yaJ#7aJaoaN.a#v`R#R.U.Uad#7.U`eaC`Z#CaKaWaWaWaWad.X.RazaEaEaEaE.8#Ga4aJ.Paw.P.P.jaU`n",
".5.2`6`6`saC#k##`faf`U`w#A#r.N.taF#5a0.#a0aO.G.l`r#oaP.K#R.k#7.j.eaCaG.8aWaY#CaH.jaIaCaxaW.laC#CaIaEaXayaX`HaW.e.2.ka4.h",
".5`Z.2.L`Z`x`s#I..aR.Z#y.W#E#m#5aO`z#`#Wa.ao`F`jaz`3`6`XaG.2.5.j#u.D#0aWapav.5``aT`H.Ra4.R.G.RaDa4aEaHaC`4az`J#t`6.Xa0.h",
".5`X.2`Z.X.Ram`h#J#6aR.Q`Q#i`daq`l#Mag.H.6aO#7.U.xaCa4.1#U.yaD.jajaD#U.jahaK#RaaaI.P#F.X.haY.8`j.iahan.5`1.U.l.GaNaJ#`ad",
".5.X`Z`Z`sad.7#i#H.4ak#j.4`Y#8#fa5a4#U#WaJa4#7.U#oaCaN#UaJaO.B`H#q.5#UaW.eae.Faw.Vae#Qa6.i.U.e.u.V#R.q.5aO.Ua1#X.za0.6`n",
"`g`Z.X.X`x#k`p#g#N#j`C.saZ#J#h#l`AaN#5.#aO`sab.8`0#t.h.2.5aU#7`j.f#7`Xaa.u#O.5aC`B.5aP#3.j.u`qaQ.h.ja1aGaN.ja1.h#Ua0agad",
"`L.X.X.X`x#x#f#a#g.N.t.JakaZ.Q`ba5#3aJ.H#UaN.Da#.8an`3aG.x`vabaa#saC#7aK#R`1aQ#C`ZaH.G`4.U`D#t.#aK#Ra#aC`4.ja#aV#K`Kag`6",
"#Q`x.X`x`x`Iam.m.E.``xaA.G`M#QayaoaoaJ.H#KaN.XaG.i.v`raz.U.raQ.j.e#G`6#X.U.U.j.j.j.j.5aUaI.UaW`H.i.j.Fa6`z`H.FaP.p.6agad",
"#Q.L`x`x`x`xaN`A.D`xa4aO`O#m.XaNaoaOaJ.0`laOao`6.a`V.u`k.M.h#X.u`z.XaoaP.5#F.qa#`zaGa4`x.5anae#U.##v.Ka4`G`D`x#n#`.6#K.2",
".g#Q`Za4a4aNaNaoao.yaoaOaO.1aO.1#5.1a..0a.#U.1.1ao.2#XaP.y.1.1.L.KaJaJ#U.1`Zayay`x#U#M`l#UaLaP`x.1.2aOa0`l.L#Uag.6aJad.X",
"aUaU.M.g`B`B.g`B.g.gaU.gaxaUaxaxax`G#X#7#X#X`G#X#Xaq#Xaq#X#X#X.had.h.h.h.h.h.h#Xad.h.had.h`n`6.h`naPay`6ad.2`6`6aP.2.X.X"
};
