/* XPM */
static char *sp3dinstance_xpm[] = {
/* width height num_colors chars_per_pixel */
"    52    18      256            2",
/* colors */
"`` c #040204",
"`. c #84826c",
"`# c #3c423c",
"`a c #ccc294",
"`b c #646254",
"`c c #1c2224",
"`d c #ece2ac",
"`e c #a4a27c",
"`f c #4c524c",
"`g c #fcf2b4",
"`h c #2c3234",
"`i c #74725c",
"`j c #bcb28c",
"`k c #949274",
"`l c #0c121c",
"`m c #4c4644",
"`n c #5c564c",
"`o c #fcfedc",
"`p c #7c7a5c",
"`q c #dcd2a4",
"`r c #242a2c",
"`s c #f4eaac",
"`t c #343a34",
"`u c #b4aa84",
"`v c #6c6a54",
"`w c #fcfabc",
"`x c #9c9a7c",
"`y c #8c8a6c",
"`z c #141a24",
"`A c #c4ba94",
"`B c #444a44",
"`C c #d4ca9c",
"`D c #545244",
"`E c #34322c",
"`F c #74726c",
"`G c #4c4e44",
"`H c #5c5e54",
"`I c #7c7a74",
"`J c #2c2a24",
"`K c #fceaac",
"`L c #bcae84",
"`M c #040a14",
"`N c #84827c",
"`O c #444234",
"`P c #242224",
"`Q c #f4e6ac",
"`R c #e4daa4",
"`S c #3c3a34",
"`T c #6c6a64",
"`U c #545254",
"`V c #34323c",
"`W c #6c6654",
"`X c #aca27c",
"`Y c #fcf6c4",
"`Z c #9c9274",
"`0 c #b4ae94",
"`1 c #fcfecc",
"`2 c #a49a7c",
"`3 c #1c1a24",
"`4 c #2c2a34",
"`5 c #fceabc",
"`6 c #040214",
"`7 c #8c8264",
"`8 c #d4c694",
".` c #646664",
".. c #fcf6b4",
".# c #7c765c",
".a c #c4b68c",
".b c #14161c",
".c c #4c4a4c",
".d c #5c5a5c",
".e c #fcfefc",
".f c #847a64",
".g c #b4ae84",
".h c #ccbe8c",
".i c #545644",
".j c #34362c",
".k c #444244",
".l c #242624",
".m c #3c3e44",
".n c #9c9674",
".o c #a49e84",
".p c #1c1e2c",
".q c #64665c",
".r c #ece6ac",
".s c #4c4a3c",
".t c #5c5a4c",
".u c #fcfeec",
".v c #e4d2a4",
".w c #746e5c",
".x c #fcfec4",
".y c #948a6c",
".z c #c4be94",
".A c #dcce9c",
".B c #74766c",
".C c #544e44",
".D c #645e54",
".E c #847e6c",
".F c #2c2e2c",
".G c #fceeb4",
".H c #f4e6bc",
".I c #ecdeac",
".J c #3c3e3c",
".K c #6c6e64",
".L c #aca684",
".M c #a49e74",
".N c #1c1e1c",
".O c #8c866c",
".P c #04020c",
".Q c #3c4244",
".R c #ccc69c",
".S c #64625c",
".T c #1c222c",
".U c #ece2b4",
".V c #a4a284",
".W c #fcf2bc",
".X c #747264",
".Y c #bcb694",
".Z c #0c1224",
".0 c #fcfee4",
".1 c #7c7a64",
".2 c #242e34",
".3 c #f4eab4",
".4 c #343a3c",
".5 c #b4aa8c",
".6 c #6c6a5c",
".7 c #fcfac4",
".8 c #54524c",
"#` c #343234",
"#. c #8c8674",
"## c #948e74",
"#a c #7c7e74",
"#b c #545654",
"#c c #34363c",
"#d c #2c2e34",
"#e c #fceebc",
"#f c #040614",
"#g c #847e64",
"#h c #444644",
"#i c #e4d6a4",
"#j c #4c4e4c",
"#k c #5c5e5c",
"#l c #2c2a2c",
"#m c #fceab4",
"#n c #bcae8c",
"#o c #040a1c",
"#p c #44423c",
"#q c #24222c",
"#r c #f4e6b4",
"#s c #e4daac",
"#t c #3c3a3c",
"#u c #aca284",
"#v c #9c927c",
"#w c #fcfed4",
"#x c #8c826c",
"#y c #d4c69c",
"#z c #fcf6bc",
"#A c #7c7664",
"#B c #c4b694",
"#C c #141624",
"#D c #b4ae8c",
"#E c #54564c",
"#F c #343634",
"#G c #24262c",
"#H c #9c967c",
"#I c #4c4a44",
"#J c #5c5a54",
"#K c #c4be9c",
"#L c #dccea4",
"#M c #747674",
"#N c #6c6e6c",
"#O c #a49e7c",
"#P c #1c1e24",
"#Q c #000000",
"#R c #000000",
"#S c #000000",
"#T c #000000",
"#U c #000000",
"#V c #000000",
"#W c #000000",
"#X c #000000",
"#Y c #000000",
"#Z c #000000",
"#0 c #000000",
"#1 c #000000",
"#2 c #000000",
"#3 c #000000",
"#4 c #000000",
"#5 c #000000",
"#6 c #000000",
"#7 c #000000",
"#8 c #000000",
"a` c #000000",
"a. c #000000",
"a# c #000000",
"aa c #000000",
"ab c #000000",
"ac c #000000",
"ad c #000000",
"ae c #000000",
"af c #000000",
"ag c #000000",
"ah c #000000",
"ai c #000000",
"aj c #000000",
"ak c #000000",
"al c #000000",
"am c #000000",
"an c #000000",
"ao c #000000",
"ap c #000000",
"aq c #000000",
"ar c #000000",
"as c #000000",
"at c #000000",
"au c #000000",
"av c #000000",
"aw c #000000",
"ax c #000000",
"ay c #000000",
"az c #000000",
"aA c #000000",
"aB c #000000",
"aC c #000000",
"aD c #000000",
"aE c #000000",
"aF c #000000",
"aG c #000000",
"aH c #000000",
"aI c #000000",
"aJ c #000000",
"aK c #000000",
"aL c #000000",
"aM c #000000",
"aN c #000000",
"aO c #000000",
"aP c #000000",
"aQ c #000000",
"aR c #000000",
"aS c #000000",
"aT c #000000",
"aU c #000000",
"aV c #000000",
"aW c #000000",
"aX c #000000",
"aY c #000000",
"aZ c #000000",
"a0 c #000000",
"a1 c #000000",
"a2 c #000000",
"a3 c #000000",
"a4 c #000000",
"a5 c #000000",
"a6 c #000000",
"a7 c #000000",
"a8 c #000000",
/* pixels */
".F.F`J#l`r`J.l`J#l`J#l`J#l.F#l`J.F.F.F.F`E.F.F`E.F`E#`.F`E#``E#F`E#F#`#F#F`S#F`S`t`S`S#t`S#t.J`S.J#p#h#I",
".F`J#p#j.C`f.C`U`f.8#E`U#E#E#b`n#b#J#J#J#J#k`H.D#k#k.S.S.S.q.`.q`T.``T`T`T.K.K`T`F#N`F`F.B.B.B`I#M.K.J#I",
"#l#p#j#j#j#j#j.8.8`U#E`U#E#b`n#b.d#b#J#J#J#k#k.D#k.S#k.S.`.S.`.`.q`T`T`T`T.K#N#N#N`F#N`F`F#M.B#M`I`I.K#h",
"`J#j#p`3.F`G.C`U#E#E#b#E#b#J#b#k#J#b`H#J.d`H#k.S#k.q.S.q.`.`.6`T.``T.`.K#N.K`F`F.K`F.B.B#M.B`I#A#M#a`N#p",
"#l.8`z.h`y#l#j`f.8`f`U#b#J#b#J#J#b`n.c.l#G#I#k`H.D#k.`.S.`.q.`.q`T.``T.K.K#N`T#N`F`F#N`F`F.B#M#M`I`I#a#h",
"#l`f.F`7#E#t.J#t.k#d`S.8.8#b#h#F#c#j`c#y`C`c.C#k`B#t.4#b.S.q.c#j#j#t#j`T`T`T.`.c.J#b`F#N`T#j.k#k#M`I`N#h",
"`J.8#c.t`O#c`n`D.F.O`b.T#j.F#I.O`.#G#p`A`A#I#h#d.D`k`2.F.k#h#A.t`G.L.6#d.S.c#G.E#D#J#h`f`r.y.Y#j.J.B`N#h",
".F.8`c`L`7`3.1`8`s`j`Q#g#G.t#z.a`R#H#O#i#L`R.E.O`o#y#m#w#F#G#s.I`o`Q#w.V#c#c#w.0.G.e#J`h.u`o.7.e##.c`N#I",
"`J#j.l.g.E#P.1`q#``M#v`8#C##`a.P`z.F`z`A.z`l#t`n#G`l`6`1.V`z#L.x.J#o.I.3`z.Y`o#d.T#A#j#L`1```6`0.u#G.B#t",
".l.k`3.n`i#P`..a`P.F.1#z.b`b.x`Q.6#P#l.R`C#d#h.T#a.g#i.7`2#C.I#i#G#c.o#m.Z#m#z`4#J#j`V#e`1`Y.G`g`1#C.K.J",
".l#h.N`Z`W.b`W`e`P#d.f#z#G#l.k`u`1`A.b`C#L.F#`#n`1`u#..x`2`z.I.U#c.J.5`Y.Z#z.H`h#J.c`r#i.o#I.D.t`b#h.K.J",
"`J#I#P`Z`v`3.w.M`c#l`W`8.b.8.b`6`y.A`l#s`C#C.T.G#K`6.T.0.V`3.r.U#F.m#u#s`z#B`g#C`z`b.k.R#m`l#P#G#G.d`F.J",
"`r#I#P`X.#.N.#`u`P.F#A`d#f`a`C`X`d`y`3`v.I`8`y#g`s#D.G`q.y#C.R#y`r.4.n#i#G.F.x.G`R.0`D`r`1.7#i#e.x.F#M#p",
"`J#j`t`b`O#t.C.t.J#h`O.#`h.F.#`.`W#P#I#G#A###I#P.w.n#F`W`D.m.w.w#I#b`D.O`m#h#F##.o#p.Q.c#G#g#u.E#t#k`I.J",
"#l.8.8#F.k`f`#.J`U#E.c#F#b#j`S#`#t#J#b#J#t`t.c#J.Q#F.8.k`U.q.c#j.`.`.d`B.K.S#k.k.J.d`T`T.S.c.Q#j.q.B.B#p",
".F#I`U#E.8`U#E#J`n#b#J#J`n#b.d#J#k#k.D#k.S#k.S#k.S.S.S.`.q.``T`T.K.K`F`F`T#N`T#N.K#N.K#N#N.X#N`F`F#M`T.k",
"#``J#j#b`H#J#k#k#k.S#k.`.q.`.q.q.``T.`.K`T.K#N.K#N`F#N.K`F`F#N.B.B`F`F#M#M.B`I`I.B#a`I#a#a`I`I#a`I.K.J#I",
"#F#F`E.F`E#``E`E#``E#F#F#`#F#F`S#F#F`S#F`S.4`S`S`S#t`S.J.J.J.J.J.J.J.J.J#p.J#p.J#p.J#p#p.J#p`#.k#p#h#I#j"
};
