/* XPM */
static char *sp3dsequence_xpm[] = {
/* width height num_colors chars_per_pixel */
"    52    18      256            2",
/* colors */
"`` c #040204",
"`. c #848264",
"`# c #3c4244",
"`a c #ccc294",
"`b c #646254",
"`c c #1c2224",
"`d c #ece2ac",
"`e c #a4a284",
"`f c #74725c",
"`g c #2c3234",
"`h c #545244",
"`i c #fcf2b4",
"`j c #0c121c",
"`k c #949274",
"`l c #7c7a64",
"`m c #dcd29c",
"`n c #bcb284",
"`o c #3c3a34",
"`p c #fcfedc",
"`q c #4c4644",
"`r c #6c6a54",
"`s c #242a2c",
"`t c #5c5a4c",
"`u c #8c8a6c",
"`v c #74726c",
"`w c #141a1c",
"`x c #f4eab4",
"`y c #b4aa84",
"`z c #343a34",
"`A c #fcfabc",
"`B c #e4daa4",
"`C c #040a1c",
"`D c #d4ca9c",
"`E c #34322c",
"`F c #a49a74",
"`G c #7c7a74",
"`H c #444a4c",
"`I c #5c564c",
"`J c #bcba8c",
"`K c #443e3c",
"`L c #84827c",
"`M c #44423c",
"`N c #6c6654",
"`O c #242224",
"`P c #7c725c",
"`Q c #545254",
"`R c #3c3a44",
"`S c #4c4e44",
"`T c #6c6a64",
"`U c #ecdaa4",
"`V c #34323c",
"`W c #acaa84",
"`X c #141224",
"`Y c #847a64",
"`Z c #fcfef4",
"`0 c #2c2a24",
"`1 c #1c1a24",
"`2 c #fceab4",
"`3 c #fcfecc",
"`4 c #0c0e14",
"`5 c #ccbe94",
"`6 c #44464c",
"`7 c #8c8264",
"`8 c #d4c69c",
".` c #646664",
".. c #f4e2ac",
".# c #aca27c",
".a c #545644",
".b c #fcf6c4",
".c c #9c9274",
".d c #3c3e34",
".e c #5c5e5c",
".f c #948a6c",
".g c #74766c",
".h c #bcae84",
".i c #dccea4",
".j c #34362c",
".k c #a49e84",
".l c #c4ba94",
".m c #44463c",
".n c #242624",
".o c #7c765c",
".p c #2c2e34",
".q c #040614",
".r c #ccc69c",
".s c #64665c",
".t c #fcf6bc",
".u c #e4d6a4",
".v c #fcfeec",
".w c #4c4a44",
".x c #746e5c",
".y c #5c5e54",
".z c #141a2c",
".A c #b4ae8c",
".B c #fcfec4",
".C c #e4deac",
".D c #d4ce9c",
".E c #a49e7c",
".F c #7c7e74",
".G c #544e44",
".H c #6c6e64",
".I c #ecdea4",
".J c #14161c",
".K c #847e64",
".L c #2c2e2c",
".M c #fceeb4",
".N c #0c0e24",
".O c #f4e6ac",
".P c #aca684",
".Q c #9c9674",
".R c #948e74",
".S c #c4be94",
".T c #04020c",
".U c #84826c",
".V c #ccc29c",
".W c #64625c",
".X c #1c222c",
".Y c #747264",
".Z c #2c323c",
".0 c #54524c",
".1 c #fcf2bc",
".2 c #0c1224",
".3 c #7c7a6c",
".4 c #dcd2a4",
".5 c #bcb68c",
".6 c #3c3a3c",
".7 c #fcfee4",
".8 c #6c6a5c",
"#` c #5c5a54",
"#. c #8c8674",
"## c #8c866c",
"#a c #040e1c",
"#b c #545654",
"#c c #3c3e44",
"#d c #34363c",
"#e c #1c1e24",
"#f c #747274",
"#g c #141a24",
"#h c #f4eabc",
"#i c #b4aa8c",
"#j c #fcfac4",
"#k c #e4daac",
"#l c #343234",
"#m c #a49a7c",
"#n c #444244",
"#o c #6c665c",
"#p c #24222c",
"#q c #7c7264",
"#r c #4c4e4c",
"#s c #fcfefc",
"#t c #2c2a2c",
"#u c #fcfed4",
"#v c #0c0e1c",
"#w c #aca284",
"#x c #54564c",
"#y c #3c3e3c",
"#z c #948a74",
"#A c #747674",
"#B c #343634",
"#C c #444644",
"#D c #24262c",
"#E c #7c7664",
"#F c #4c4a4c",
"#G c #d4cea4",
"#H c #7c7e7c",
"#I c #6c6e6c",
"#J c #ecdeac",
"#K c #141624",
"#L c #847e6c",
"#M c #fceebc",
"#N c #f4e6b4",
"#O c #9c967c",
"#P c #c4be9c",
"#Q c #000000",
"#R c #000000",
"#S c #000000",
"#T c #000000",
"#U c #000000",
"#V c #000000",
"#W c #000000",
"#X c #000000",
"#Y c #000000",
"#Z c #000000",
"#0 c #000000",
"#1 c #000000",
"#2 c #000000",
"#3 c #000000",
"#4 c #000000",
"#5 c #000000",
"#6 c #000000",
"#7 c #000000",
"#8 c #000000",
"a` c #000000",
"a. c #000000",
"a# c #000000",
"aa c #000000",
"ab c #000000",
"ac c #000000",
"ad c #000000",
"ae c #000000",
"af c #000000",
"ag c #000000",
"ah c #000000",
"ai c #000000",
"aj c #000000",
"ak c #000000",
"al c #000000",
"am c #000000",
"an c #000000",
"ao c #000000",
"ap c #000000",
"aq c #000000",
"ar c #000000",
"as c #000000",
"at c #000000",
"au c #000000",
"av c #000000",
"aw c #000000",
"ax c #000000",
"ay c #000000",
"az c #000000",
"aA c #000000",
"aB c #000000",
"aC c #000000",
"aD c #000000",
"aE c #000000",
"aF c #000000",
"aG c #000000",
"aH c #000000",
"aI c #000000",
"aJ c #000000",
"aK c #000000",
"aL c #000000",
"aM c #000000",
"aN c #000000",
"aO c #000000",
"aP c #000000",
"aQ c #000000",
"aR c #000000",
"aS c #000000",
"aT c #000000",
"aU c #000000",
"aV c #000000",
"aW c #000000",
"aX c #000000",
"aY c #000000",
"aZ c #000000",
"a0 c #000000",
"a1 c #000000",
"a2 c #000000",
"a3 c #000000",
"a4 c #000000",
"a5 c #000000",
"a6 c #000000",
"a7 c #000000",
"a8 c #000000",
/* pixels */
".L.L`0.n`0`s`0`0`s`0#t`0#t.L#t`0.L.L.L.L`E.L.L`E.L`E#l.L`E#l`E#B`E#B#l#B#B`o#B`o`z`o`o.6`o.6.d.6#y`M#C.w",
".L`0#n#r.0.G#r`Q.0.0#x`Q#x#x#b`I#b#`#`#`#`.e.y.e.W.e.W.W.W.s.`.s#o.``T`T`T.H.H`T`v#I`v`v.g.g#A.3#A.H#y.w",
"#t.m.G#r#r.0#r.0.0.0#b.0#b#b`I#b#`#`#b.e#`.e.W.e.y.W.e.W.W.`.W.`.``T`T`T`T.H#I#I#I`v#I`v`v.g#A.g`G`G.H#C",
"`0#r.0#r.0.0.0.0#b#b#b#x`I#b#`.e#b#`.e#`.e.y.W.W.W.W.s.W.`.s.``T`T.``T.H.H#I.x#f.H`v.g.g`v#A.3`G#A.F`L`M",
"#t.0#r.0#r`Q#r#r#x.0#x#b#b#`#b#`#b.y#`.y.e.W.e.W.e.`.W.e.`#o.`.s.`.H.`.H`T#I#I`v#I`v`v#I.g#f.g#A#E`G#H#C",
".L.0#r.0`#`g#B.0.0`6#l.p#C`Q#x#C#l`z#c#C#`#l#`.e#r#n.s.W#C.6#c.W.s#C`Q#n#y.``T`T#b#n`H`T#I.y`6#n.`.F#H`q",
".L.0#r.L`K`7.o.L`z#t`u##`o#B#B#C`k#q`N`b.p#m#y#r`b.U#n`s#E`e.R#p#n#z`S`k#i`c#b#y.y#i`e`o#C#F.S.l#d.0#H.m",
".L#`.w#t`d`f`y.0#D...R.E.O#t.6.B`y`B.M#z`j`3`t#l#m#J#g`k`3.c.t.S#K.C#u#J.M#u#e#`.v#N.B`8.6#s#w#h.v.p.F.w",
"`0`Q`#`h.O#y.q`1##`a.L`s.M.Y.K.D#v#g`d#z`j.B#`.p.Q.4#v`3.Y.6#..7`C.I#G`C#r.7.N#N`2#K`g`R#P#M`6`R`Z`Y#b#y",
".n.m`M#e`r`U`B#l.Q.D`5`D`a`I#w.A#t#p.r.Q`j#u`t`s#O#k`C`3#J#N.O`i.2`x#w.p`b.v#a.t.k#c#b#l#j.1.M`x`m.x#r#y",
".n#r#C.L`4.T.c`f`r.l``#K`j.X.Q`U#a#e`2`k#K#u`I.q.V`B`C.7#``C#K#g#l.1.A#d.8`Z.N.B.V#g#D#C#w`5``#K`C`#`v.6",
"`0#r.L.x`n`r`a`t`1`8.A`P.I`h#c`A.l.O`i.c#g#J.b.1`3#N.X.k.7.r.i.B#g.1`y#d`b`p.J`I#u.u.B.P#B#u.u.k#u`N#b#y",
"`0.G#F`O`t`Y`K`s`E`s.x`.`h#l.L`E`u#l.E`Y.p#e`l`N.L#q`o#D#B.c.U`E#C.x`S`Q`g.P.6`z`M#w`l#B#n#B.Q`W.x`#.3#y",
"`s`Q`S#r#B.L#y`S`S.w#B`E#c#x#b`q.p`c`a`u#l#r.6`#`S#y.e.W#r#y`##`.`#F#b.8.W.6.`.`#b#y#F.W.`.e#C`K`Q`v#A`K",
"#t.0.0#r.0.0.0`Q#x#b`Q#b#`#`#b#`#`.6#E`t#F.y.e.W.W.W.`.W.`#o.``T.`.H.H`T#I.H#I.H`T`v.H#I.H`v#I`v#I.g#A`M",
".L.w#b#x#b#b#b#`#b#`.y#`.e.e.W.e.e.W`##r.s.W.`.``T`T.`.H`T#I`T`T#I`v#I`v#I`v`v`v`v`v`v.g#A`v.g#A#A`G.H#n",
"#l`0#r#`#`.y.y.W.e.W.W.W.s.`.s.s#o.``T`T`T`T.H#I.H`v#I`v`v`v.g.g.g.g#E#A.3#A.3`G#A.F`G.F`G.F.F.F`G.H#y.w",
"#B#B`E.L`E#l.L`E#l`E#B#B#l#B`o#B#B`o#B#B`z`o`o`o.6`o.d.6.d.6#y#y.6#y#y#y#y#y`K`#.d`#`M#y`M#y#n`M#n#C.w#r"
};
