/* XPM */
static char *sp3dplace_xpm[] = {
/* width height num_colors chars_per_pixel */
"   105    28      256            2",
/* colors */
"`` c #040205",
"`. c #b48a2c",
"`# c #843624",
"`a c #3c4240",
"`b c #fcc214",
"`c c #1c2224",
"`d c #c49214",
"`e c #64625c",
"`f c #ccc296",
"`g c #c4ae04",
"`h c #2c1604",
"`i c #ece2ac",
"`j c #4c3204",
"`k c #0c120c",
"`l c #a4a284",
"`m c #5c4e14",
"`n c #2c3234",
"`o c #84826c",
"`p c #9c927c",
"`q c #c4b68e",
"`r c #74726c",
"`s c #e48220",
"`t c #dcd2a1",
"`u c #fcf2bc",
"`v c #e4921c",
"`w c #140604",
"`x c #4c524b",
"`y c #342617",
"`z c #1c120c",
"`A c #e4a61c",
"`B c #f4b614",
"`C c #040e04",
"`D c #e4721c",
"`E c #242a2d",
"`F c #a49284",
"`G c #4c4234",
"`H c #7c6a3c",
"`I c #44362c",
"`J c #8c8a72",
"`K c #e4daa7",
"`L c #fcfee0",
"`M c #bcb28c",
"`N c #fca21c",
"`O c #6c6a58",
"`P c #645614",
"`Q c #fc8224",
"`R c #f4921c",
"`S c #1c1a1c",
"`T c #d4ca9b",
"`U c #141a21",
"`V c #b4a684",
"`W c #7c7a67",
"`X c #f4eab7",
"`Y c #343a3c",
"`Z c #fcfabd",
"`0 c #5c564c",
"`1 c #444a44",
"`2 c #fcf21c",
"`3 c #2c2214",
"`4 c #443624",
"`5 c #e48c1c",
"`6 c #040a14",
"`7 c #e47e20",
"`8 c #6c5a44",
".` c #040216",
".. c #3c424c",
".# c #fcd41c",
".a c #0c121c",
".b c #9c9a7c",
".c c #545a54",
".d c #8c8a84",
".e c #5c5e5a",
".f c #947a1c",
".g c #1c222c",
".h c #dcd6af",
".i c #4c5254",
".j c #342a1c",
".k c #e4ae14",
".l c #a49a7c",
".m c #1c1a24",
".n c #c4be91",
".o c #e49e1c",
".p c #fcba1c",
".q c #2c2a29",
".r c #e4dab4",
".s c #6c6a64",
".t c #b4ae88",
".u c #747e84",
".v c #fceab2",
".w c #fcfad4",
".x c #0c0404",
".y c #44423d",
".z c #6c665c",
".A c #d4c699",
".B c #54321c",
".C c #84827c",
".D c #949289",
".E c #ec821c",
".F c #140e24",
".G c #4c4a45",
".H c #443e37",
".I c #948a74",
".J c #f4ae14",
".K c #f49a1c",
".L c #dcce9d",
".M c #3c3a37",
".N c #645a50",
".O c #f47e20",
".P c #bc7224",
".Q c #ac9a88",
".R c #fcca1c",
".S c #646664",
".T c #4c1a1c",
".U c #141211",
".V c #aca284",
".W c #343230",
".X c #7c7664",
".Y c #e4d5a4",
".Z c #1c162c",
".0 c #0c0a09",
".1 c #ecdaa4",
".2 c #241a11",
".3 c #0c0e19",
".4 c #3c2b1c",
".5 c #2c2e34",
".6 c #fcecbc",
".7 c #544a44",
".8 c #fcaa2c",
"#` c #3c3e44",
"#. c #847a64",
"## c #dcbe24",
"#a c #543e04",
"#b c #341624",
"#c c #442a1c",
"#d c #ec6e2c",
"#e c #f48e1c",
"#f c #5c4634",
"#g c #943a14",
"#h c #746e58",
"#i c #443224",
"#j c #2c1e14",
"#k c #9c9c94",
"#l c #3c220c",
"#m c #ec760c",
"#n c #140e0a",
"#o c #bcba94",
"#p c #fcda18",
"#q c #bc7a1c",
"#r c #fcfef0",
"#s c #ccbe94",
"#t c #bcae84",
"#u c #4c3e34",
"#v c #242220",
"#w c #f4e2ac",
"#x c #8c866d",
"#y c #54534c",
"#z c #eca21c",
"#A c #fcb21c",
"#B c #ec7a1c",
"#C c #444254",
"#D c #14161f",
"#E c #24222c",
"#F c #545254",
"#G c #ecaa1c",
"#H c #7c7e7c",
"#I c #fcac1c",
"#J c #241224",
"#K c #747674",
"#L c #fcf6cc",
"#M c #ec941c",
"#N c #1c161c",
"#O c #4c3a2c",
"#P c #d4caa4",
"#Q c #7c7c74",
"#R c #5c5a5c",
"#S c #4c3824",
"#T c #ec8b1c",
"#U c #342e2c",
"#V c #ec9c1c",
"#W c #fc9d1c",
"#X c #aca694",
"#Y c #34363c",
"#Z c #fc921f",
"#0 c #645e54",
"#1 c #e4d6ac",
"#2 c #5c3224",
"#3 c #4c321c",
"#4 c #8c8a7c",
"#5 c #c4be9c",
"#6 c #b4ae94",
"#7 c #1c0e24",
"#8 c #443e44",
"a` c #fc8e1c",
"a. c #040607",
"a# c #fcc61c",
"aa c #64665c",
"ab c #ccc698",
"ac c #2c1a0c",
"ad c #9c9678",
"ae c #c4ba8c",
"af c #74766c",
"ag c #e4861c",
"ah c #dcd6a4",
"ai c #fcf6bd",
"aj c #140a0c",
"ak c #a4967c",
"al c #6c6e5c",
"am c #d4ce9c",
"an c #141e1c",
"ao c #b4aa8a",
"ap c #fcfec4",
"aq c #5c5a54",
"ar c #2c261c",
"as c #040e18",
"at c #040614",
"au c #0c1624",
"av c #8c8e84",
"aw c #342e24",
"ax c #a49e81",
"ay c #1c1e24",
"az c #fcbe18",
"aA c #2c2e2c",
"aB c #e4debc",
"aC c #6c6e68",
"aD c #fceeb4",
"aE c #fcfed1",
"aF c #444644",
"aG c #84867c",
"aH c #94968c",
"aI c #ec8621",
"aJ c #4c4e4b",
"aK c #948e75",
"aL c #3c3e3c",
"aM c #ac9e8c",
"aN c #fcce18",
"aO c #141612",
"aP c #aca687",
"aQ c #343634",
"aR c #0c0e0a",
"aS c #ecdeaa",
"aT c #241e14",
"aU c #fcae24",
"aV c #847e68",
"aW c #242624",
"aX c #f4e6b2",
"aY c #eca619",
"aZ c #fcb619",
"a0 c #ec7e24",
"a1 c #44464c",
"a2 c #24262d",
"a3 c #545654",
"a4 c #ecae18",
"a5 c #e4961c",
"a6 c #1c160c",
"a7 c #e4761c",
"a8 c #1c1e1c",
/* pixels */
"#va8a8`S`S`S`S`S`S`S`Sa8#v#va8a8a8`S`S`S`Sa8`S`S`S`S`S`S`S`S`Sa8`Sa8`S`Sa8a8a8a8a8a8a8a8a8a8a8#va8#v#v#v`c#vaW#vaWaWaWaWara2.qaW.q.q`E.q.q.q.qaAaA.qaAaA#U`n#U`n.W.W.W.W.WaQaQ.WaQ.MaQ.MaQ.M.M.M.MaLaL.MaLaL.y.GaJ",
"`c`SaAaQaQaQaQaQ.WaQaA````````.x.0.WaQaQaQaQaQaQ.MaQ`Y.MaQ.M`Y.M.M.M.MaL.M.MaL.MaLaL.HaL.HaL.HaL.y.yaFaF.GaFaF.y.qaA.GaJ#y#y#y#ya3a3a3`0.caqaq.eaq.e.e#0.e`e`e`e`eaaaa.S.s.s.saCaC.s`r`r`r`raf#Kaf#Qaf#Q#Q#Q`raLaJ",
"a8#UaQ`IaQaQ.W.WaQa8``.u`I.G```kaC``a8.M.WaQ.M.MaQ.M.M.MaQaL.M.MaL.MaLaL.MaLaLaL.HaLaL.H`a.H.yaF.yaFaF.GaF`G`a#U`O`O.q.GaJa3a3#ya3a3`0.caqaq.eaq.e.e#0.e`e`e.eaaaa.S.z.S.s.SaC.saC#haCaC`raCafafaf.X#K#Q#Q#Q#Q`raF",
"a8.MaQaQ`YaQaQ.M.0``aJaw.l.y``````aC``.W`Y.M.M.M.MaL.MaLaLaLaLaLaLaLaL.H`a.y.y.H.y.yaF.y.yaFaFaF`1.G.G.GaJaJaQ.yae.A#DaJa3`0aq.caqaq.e.e.e`e.e.e`e`e`eaa.Saa.s.s.s.saCaCaC`raC`raCaf`rafaf#K`W#K#Q#Q#Q#Q#Q`o.C.CaF",
"a8.MaQ.MaQ`IaQa8`caq`G`F.N````.0````#v``aLaQaLaLaLaLaLaL.H`a.H.y.y.y.yaF.y.y.yaFaFaFaF.GaF.GaFaJ.GaJaJaJ#y.G.M`a`qab`S.Ga3.e.e.e#0.e`e`e`e`e`eaaaaaa.S.s.saC.saCaCaCaC#haC`r`rafaf#K#Q#Q#Q#Q#Q#Q#Q#Q#H.C#H.C#H.d`1",
"a8.M.M.M`YaQaL``a3`Iak.N````#n.0.0````.5#vaLaLaL.H.y.y.y.y.y.y.y.yaF.yaFaF.GaF.GaF.G.GaF.GaF.G.G.GaJ#y#y#y`xaQ`G`f.L`UaJ.e#0.e.e.e#0.e`e.eaaaa.s.s.s.s.S.s.S.s.SaCaC`r`r#Kafaf`r`r`r`raf#K#Q#Q#H#Q.C#H`o.CaGaG.d.G",
"aTaL.M.M.M.M#v`c.HaM.H````.U`z.0.0````.N``aFaL.H.y.yaF.y`1aF.G`1.G`1.G.G.G.G.G.G.GaJaF.GaFaFaFaL.y.G.Ga3a3#y.M`1.A`ta8aJ.e`e.eaqa3aF`xaq`eaa.S.saCaC.s.Saaaaa3aqaa.saCafafaf`raCaC.e.eaC`r.X#Q#H.C.C.CaGaGaGaGavaF",
"`caLaLaL.MaLa.aLawaO````.2.2`z.U.x`C.Z#m#a``.G`a.y`1aF.G.G`1.G.G.G.G.GaJ.G`xaJaJ.GaQaO#DaA.q`U.j`n#D`E.G`0a3aL.G`taSa8#yaq.e.MaW.U.e.M#DaAaJ.s.saC.saC#y.5`U.H`aay.M.s`r`r`r`eaQ`c.GaF#E`Y.S#Q#QaG.CaG.daG.d.dav.G",
"#v.HaLaLaL.y``.y````.0.j`3.2a6#n.0`c.T#A#p.U``aJaFaF.G.G.G.GaJaJ.G`xaJ#y#y#y#yaJaJ`S.A`t#vaq`qab.A.n#x`UaJa3aL.G.1aXa8a3.e.q`W`t`Zai`uap#s.5aJ.saCaC`a.5`TaEapaEaE.l`EaCaC`x.g`TaE`L`LaE#Pa2aq#Q.C.d.daG.d.d.d.D.G",
"`c.yaL.HaL.y``aC```y#S.4`3aTa6#naW#Ja`aZaYaN```6#yaF.GaJaJ`x.7#y`x#y#ya3#ya3a3#yaJaOab#tad`f.A`t.L#s.L.laW#y.y#y`iaD`c`0.y`Japaiap#saX`u`uap#Daa.saJ.yaE`ZaEapaEap`Lax.G#R#YaEaE`L.6.h`L`L`L.q`r.CaGav.davavavaH.G",
"#v.y.y`a.yaL.q`E`G#c`4.4ar`3acan`z`DaZ.o#z.J.R``aOa3.G`x#y#ya3a3#ya3a3a3a3`0aqa3.G`U.L.t#s`T.H`ka2`TabaD#UaF`a#y.vai#v.eaFakaX.z`U.5`U.l`Zap`r.Gaa#EaXapaE.ya2`U#.#raea1`n.raE#LaJ.5.5.G`L`LaPa1#Havavav.DavavaHaJ",
"#vaFaF.y.y.y`1``.H```4#O#SaTas#b.OaZa5#V#z`AaZaz``aA#yaJ#y#ya3a3aqaqaqaqaq.e.eaqaJ`S`taeae`UaQaF.W`E.v`KaKaQ.Haq`uapaW#R.S`1`n.G#F.G.M#DaEapao.M.Gaa`LaE`O#`aq.S.G#YaJaqaq`L`L`eaQ.GaF.WaK`L`L`n#Q.d.D.D.D.DaH#k#y",
"a8.MaL.y.yaFaFaF``aJ.x`Sa.at`##Z#Ia5#V.o#VaY.kaz.k``aLaq#y.c`0aqaqaq.e.e.e.e`eaq`xa8`K.L.X.q`xaq#yayabaS`T.5aL.e`Zapa2.eaC`r#0a1aQ`n.5as.LaE.V`a#`aPaE`Lay`e#K#Q#H#Q`raJ#4`LaEat#Y#Y`Y.5.G`L#ra2.Cav#kaHav.d.CaG.H",
"a8.MaQaQ.MaQ.M.M`Y``.u#2#g#d#W.K`5#Ma5#M.o`A#G#G`b`d``aQ.eaqaq.e.e.e`e#0`e`eaa.e#ya8`i`t#x`n.eaaaq.qab.v`T.5.H`eapapa2`eaC#y`E#x`K`K`L`LaEaEaPaL`Y`K`L#1#YaC.Cav.d#4#Qa1.t`L.w#r#r#r#r#r#raE`L.Xa3`W#KaC`raf`r#Q#`",
"a8.M.M.M.M.M`Y.M.M.M````.PaZ`sag#T`5#Ma5#M#VaY.ka4`b##``.M`e.eaaaaaaaaaaaaaa`Oaaa3ay.vaS#x.Waa.s`e.5aPai`t`n.y`eapaE`E`e.e.g#raE`L#raE#1ai`LaP.y#`.r`L.r`Y#Q.daH.D.d#H.yaPaEaD.Y.Y.Y.L`Tam.L`ta2aC`r#Q.X#Q#Q#Q#H.y",
"aTaLaL.MaLaLaLaLaLaL.y`Y``#q`N#B`5#T`5#T`v#M`v#z`A.#`g``aO#y#ya3aq.e#0`e`e.S.S.S`0`c`uaXaK.W`e.S`e`E.Yap#1aQ`1al`L`L.5#0`YaXaE`L`ra2.W.3aSaEaP.M#`.bapaEayaq.S.s.s.S`e#Yad.6apat`E.5`n.W.5`n.W`e`r#K#Q#Q#Q#Q#Q#H.y",
"`caLaLaLaL.H.yaL.yaLaL.y`n``ag#Wa7aI`5#T#T`5`5ag`R`2``..aRaJaJ#y.7.i#y#y#ya3`0aJaF#D#s.taKas.MaFaQ`U.Y`faV.5aQ.7.Y`iaya1ayaiaS`ea8aQ.W#D#o.vaK#YaQ.IaDai.H#`.e`e.eaLaF#`adapap#Y.MaJ#R.c#R#R`eaC#K#Q#Q#Q#Q#Q#Q.C`a",
"#v.HaL.H`a.y.y.y.y.yaF.yaFaW``#W#ea0`s`saI#Tag.E#p`P``.MaRa3aJ#F.caqa3.caq.caqa3aJ`S.L`M.Aad.3aW.3ax`T`i#yaL.ya3aX`ua2aJ#EapaXaP`k.Way`rai.6`p`YaJ`YaE.vab.g.W#Yay#5aP#`aAaEai`t.a#`.y#`#Y.WaJ`e#Q#Q#Q#Q#H#H#Q.C.y",
"`c.yaL.y.y.y`aaFaF`GaFaFaF.G`U```N.E.E.E`s`7.OaN.f.`.2aw``a3#ya3aqa3aqaq#Raq.eaqaJ.m`t`Mab.Lab#..n`t.Y.A`caq.ya3aD`Z#v#y.q.haXaXao`WaoaEaD`uad.M.e#U.naE`Zai`JaxaEaEao.y`YaMaEap.6ad.X.bab`LaE.5#Q#Q#H#H.C#H.C.CaF",
"#v.y`a.y.yaFaFaF`G`1.G.GaFaF#y`6``#I#Ba7`Da`a#`m.F`4.4#j``#y#y`0aq.e.e.e.e.e`e.e#y`U`K`TaV.Y`KaSaS.v`T.maJ`e.G.eapaE.g`e.G.yaE`ZapaEaE`K.taEaP#`aC.e`E#saEaEaEaEaEaE#yaqaaa2ax`LaEaE`L`LaE`L`paJ#Q#H.C.C#HaV#HaG.y",
"#vaF.yaFaFaF`G`1.GaJ.GaJaJ.G.G#y``.Z#W`Q.8#V`k``#n#i#S`y``aJ#F.c.e.e.e#0`e`e`e.e.7ayaS.LaV#D`o#xaK#yayaJ.s.S.S.W.VaKaL.saCaF#vad.l.V#h.5#y`M`0`eaC`r`e.5aJak`laP`Wa8aJ#K`raC.M`a.X`V.VaP#x#`aL#Q#Q.C.C#H.C.C#HaGaF",
"#vaFaFaF`G`1.G.G.GaJaJaJ.GaJaJ.Ga3``.B#Z`j````````a.#i#l.G`k.eaq.e`e`e`e.eaa.S.ea3ay`i`t#xaW.WaQaQ`1`e.saCaCaC.s`aaF`r`raC`r.SaF#`aLaJ.eaq#``e#K#Q#Q#K`raqaF`a.HaJ`r#Q#K#Q#Q`r`e.i#`aF`aaJ.S#Q#Q#H#H.C.C.C#HaG.daF",
"aW.GaF.G.G.G.GaJaJaJaJ.7`x.7`x#yaJaqa.`````6``````````ar#f``a3.e.e`e`eaa.S`e.s`ea3ay`X.Y`J.W.c`e.S.zaCaC`raf`r`r`r#Kaf#K#Q#K#K`r`raCafaf#K#Q#Q#Q#Q#Q#H#Q#Kaf#K#Q#K#Q#H.C.C#H#Q#H.X#Q#K.X#Q#Q#HaVaGaG.CaG.CaG.CaG.G",
"aW.G.G`1.GaJaJaJaJ#yaJ#ya3a3#F#y#F#y#RaLaW.U``a.``aO``````..aWaa`e`e.Saa.S.S.saaaqayaDaS`JaQ.SaC`r`r`r#K#K.X#K#Qaf#Q#Q#Q#H#Q#Q#Q#Q#H.C#H#Q.C#HaV#HaG.C.C.C.C.C#H.C.C.CaG.CaGaG.C.C.C#HaG.C.C.C.CaGaGaGaGaGaGaG.daF",
"aW.G.GaJaJaJaJ#yaJ#y#Fa3#ya3a3a3a3a3a3aqaq.eaq`aaO``.Was`h`.``.s`e.S.z.S.s.s.s.Saaayapap#x.HaC`r`r`r#Kaf#Q.X#Q#Q#Q#Q#H#HaV.C#H.C.C.C#H`o.C.C.C.CaG.C.C.C.C.C.CaGaGaGaG.CaGaG.daGaGaGaGaGaGaGaGaGaGaG.CaG.CaG.daG.G",
".qaFaJaJ.7`x#y#y#y#Fa3a3`0a3aqaqaqaqaqaq.c`0.caq.ea3.q```H.8``aC`e.S.s.s.s.saC.s.S.7`c.maL.saC`r`r#Kaf.X#K.u.X#Q#Q#H#Q#H#H#Q.C#Q#H`o.C#H.C#H.C#H.C.CaG.CaGaGaGaGaGaGaGaGaG.CaGaG.daG.daGaG.daGaG.d.C.daG.daG.d#KaJ",
"aA.qaF#ya3#Fa3a3`0.caqaq.e.eaq.e`e.e`e`eaa`eaa`e`e`eaaaf.g`w`xaCaCaCaCaC`raC`raf`raCaCaC`raC#K#Q#Q#Q#Q#H.C#H.C#H.C.CaG#4.CaGaGaGaG.daGaG.daG.daGavaG.daGav.d.d.d.d.d.d.dav.dav.dav.dav.dav.dav.dav.dav.dav.d#Q.y#F",
".W`naA.qaAaAawaA.5#U`n.W#U`n.WaQ.WaQ.WaQ.WaQaQaQ.WaQaQaQ.y`E#8.M.M.M.MaL.MaL.MaLaLaL.HaLaL.HaLaLaL.y`a.y.y.y.yaF.yaF.yaFaFaF.GaF.GaFaFaF.GaF.GaF.Ga1.G`1.GaFaF.Ga1.GaF.G.G.G.G.G.G.G.G.G.G.G.G.G.G.Ga1.G.Ga1aJa3#y"
};
