/* XPM */
static char *sp3drem_xpm[] = {
/* width height num_colors chars_per_pixel */
"    60    18      256            2",
/* colors */
"`` c #04020c",
"`. c #049e04",
"`# c #3c423c",
"`a c #84826c",
"`b c #84ca1c",
"`c c #1c2224",
"`d c #5c625c",
"`e c #2c3234",
"`f c #c4fe24",
"`g c #94b244",
"`h c #6c726c",
"`i c #54524c",
"`j c #240e3c",
"`k c #342244",
"`l c #ccc694",
"`m c #949274",
"`n c #f4eab4",
"`o c #0c121c",
"`p c #34d204",
"`q c #3c3a34",
"`r c #7c7264",
"`s c #242a2c",
"`t c #fcfedc",
"`u c #8cfe04",
"`v c #4c4a44",
"`w c #545a54",
"`x c #646a64",
"`y c #8c8a6c",
"`z c #fcf6bc",
"`A c #7c827c",
"`B c #b4aa8c",
"`C c #9c9a7c",
"`D c #2c2624",
"`E c #343254",
"`F c #342264",
"`G c #141a2c",
"`H c #7c7a64",
"`I c #140234",
"`J c #acca3c",
"`K c #444a44",
"`L c #242244",
"`M c #6c665c",
"`N c #343a3c",
"`O c #747a6c",
"`P c #341a44",
"`Q c #64c204",
"`R c #3c325c",
"`S c #645e4c",
"`T c #7c7a74",
"`U c #8c866c",
"`V c #242224",
"`W c #646254",
"`X c #34322c",
"`Y c #a4a284",
"`Z c #5c5654",
"`0 c #2c2a24",
"`1 c #a4fe04",
"`2 c #544e4c",
"`3 c #5c5a4c",
"`4 c #fcfec4",
"`5 c #649e04",
"`6 c #a49a7c",
"`7 c #44423c",
"`8 c #94da2c",
".` c #747264",
".. c #54565c",
".# c #241e1c",
".a c #e4deac",
".b c #fcf2bc",
".c c #1c1614",
".d c #3c3e44",
".e c #4c4e54",
".f c #6c6a5c",
".g c #8c8a84",
".h c #342a5c",
".i c #7cb244",
".j c #646664",
".k c #34363c",
".l c #2c2a34",
".m c #5c5a5c",
".n c #74aa24",
".o c #a49e8c",
".p c #0c0234",
".q c #2c9204",
".r c #84827c",
".s c #54564c",
".t c #342e34",
".u c #9c927c",
".v c #fceab4",
".w c #3c3e34",
".x c #fcfeec",
".y c #4c4e44",
".z c #948a74",
".A c #bcb694",
".B c #1c1a1c",
".C c #847e64",
".D c #140e14",
".E c #74be1c",
".F c #242624",
".G c #646654",
".H c #34362c",
".I c #aca284",
".J c #a49e7c",
".K c #747674",
".L c #6c6e6c",
".M c #442e54",
".N c #0c0e1c",
".O c #f4ee54",
".P c #d4ceac",
".Q c #9cf60c",
".R c #fcfacc",
".S c #a4e244",
".T c #7c7e74",
".U c #2c2e2c",
".V c #a4f624",
".W c #5c5e54",
".X c #fcfed4",
".Y c #5ca204",
".Z c #444644",
".0 c #9cde3c",
".1 c #74766c",
".2 c #241a3c",
".3 c #1c1234",
".4 c #6c6e64",
".5 c #3c2e5c",
".6 c #349a0c",
".7 c #fceeb4",
".8 c #1c1e1c",
"#` c #140a34",
"#. c #54c604",
"## c #dcfe24",
"#a c #9cb664",
"#b c #2c1e5c",
"#c c #b4d234",
"#d c #bcb28c",
"#e c #343a44",
"#f c #c4be94",
"#g c #649a1c",
"#h c #342a4c",
"#i c #74c614",
"#j c #9cfe04",
"#k c #8cc624",
"#l c #3c264c",
"#m c #dcd2a4",
"#n c #6cbe04",
"#o c #ece2ac",
"#p c #349604",
"#q c #acfa24",
"#r c #141214",
"#s c #44325c",
"#t c #1c0a34",
"#u c #342e54",
"#v c #aca684",
"#w c #24123c",
"#x c #7c7664",
"#y c #fcfabc",
"#z c #2c2e34",
"#A c #5c5e5c",
"#B c #84867c",
"#C c #9c967c",
"#D c #948e74",
"#E c #040214",
"#F c #3c4244",
"#G c #848274",
"#H c #1c222c",
"#I c #545254",
"#J c #94927c",
"#K c #3c3a3c",
"#L c #fcfee4",
"#M c #4c4a4c",
"#N c #8c8a74",
"#O c #2c262c",
"#P c #7c7a6c",
"#Q c #444a4c",
"#R c #747a74",
"#S c #8c8674",
"#T c #24222c",
"#U c #64625c",
"#V c #343234",
"#W c #2c2a2c",
"#X c #5c5a54",
"#Y c #fcfecc",
"#Z c #a49a84",
"#0 c #444244",
"#1 c #94da34",
"#2 c #74726c",
"#3 c #241e24",
"#4 c #1c161c",
"#5 c #6c6a64",
"#6 c #74aa2c",
"#7 c #545654",
"#8 c #3c3e3c",
"a` c #fcfef4",
"a. c #4c4e4c",
"a# c #847e6c",
"aa c #24262c",
"ab c #64665c",
"ac c #343634",
"ad c #aca28c",
"ae c #a49e84",
"af c #7c7e7c",
"ag c #fceebc",
"ah c #1c1e24",
"ai c #000000",
"aj c #000000",
"ak c #000000",
"al c #000000",
"am c #000000",
"an c #000000",
"ao c #000000",
"ap c #000000",
"aq c #000000",
"ar c #000000",
"as c #000000",
"at c #000000",
"au c #000000",
"av c #000000",
"aw c #000000",
"ax c #000000",
"ay c #000000",
"az c #000000",
"aA c #000000",
"aB c #000000",
"aC c #000000",
"aD c #000000",
"aE c #000000",
"aF c #000000",
"aG c #000000",
"aH c #000000",
"aI c #000000",
"aJ c #000000",
"aK c #000000",
"aL c #000000",
"aM c #000000",
"aN c #000000",
"aO c #000000",
"aP c #000000",
"aQ c #000000",
"aR c #000000",
"aS c #000000",
"aT c #000000",
"aU c #000000",
"aV c #000000",
"aW c #000000",
"aX c #000000",
"aY c #000000",
"aZ c #000000",
"a0 c #000000",
"a1 c #000000",
"a2 c #000000",
"a3 c #000000",
"a4 c #000000",
"a5 c #000000",
"a6 c #000000",
"a7 c #000000",
"a8 c #000000",
/* pixels */
"#W#W.F.F.F.F`D.F.F`0.F`0`s`D`0`s`0#W`0#W`s`7`0.U#W.U.U.U.U.t.U`X`e.t`X`X#V.H#V.H#Vacacac`qac`q`N`q`q`q#K#8`q#8#8`7`7`v`v",
".U.F`7`v#M`va..ya.a.`2a.`ia.`i`i`i#7`i#7#X.t.W#X#X#X#X.W#A.W#U#A`W#U`dabab.j.j#5`x#5.4#5.L.4#2#2`h#2.1.1.K#P.K.T`T.L#8#M",
"`0`7`v`v`va.`va.`va.a.`ia.`i`i.s#I`i#7.s.W.t#A#7#X#X#A.W#U#A.W#U#A#U#U#U.j.j`M`x`M#5#5.4.4#2#5#2#2#2.1.K#2`T.K`T`T.T#2.Z",
"`0`v#M.y#Ma..ya.`2`i`i`i`i.s#I.s#7#7#7#X#U`D#U.W#A#A.W#U#U#A#U#U.j.j.j`M`x#5#5.L#5.L.L#2#2.L#2.1#2.K.K#x#R`T`T`T.T.T.r.Z",
".Fa..ya.a.`2a.`i`ia..s#7.s#7#7`w#X#X.W.W.j#O.j#A#U#U#U#U#U#U#U#U#U.j.j#5.j#5.j#5#5.4#2.L#2#2.L.L.1#2.1.K.K#x#R`T.Taf#B.Z",
"#Wa.a.`2a.`i`i.s#7#7#I#7#X#X#X#X#X.m#A#A#5.#.4#U#U#U.j#U#U`w#Q#A.Z#0#U#Uab#I.Z`K.m.4#5#2#U#I#5`w.Z.m#5#5#U.Z.m#R`T`T#S.Z",
"`0`i`i`i`i.s#7#X#X#X.W.W.W#A#U#U#Uabab#U#5ah.Lab.j.jab.j#A`7`Sah.f.C`q`w`e.Z.C.f#K.k#5#A`v.faaa.#D`i`e.k#K#vab#V.4`A.ga.",
"`c`v`K`i`w..`E#s#u.5.h.5#b`F`F`F.5.M.eab#2.B#2`M`x#5#5.jac#C#Y.z#Y`tabah.I.X.X.X`t.`#K#8`B#L`Y.x`t#L.I`Ya`.x.x.P#K.K`T`q",
"`V.Z#0`7.y#h`8#p`5`Q`b.n`f#j`u`1#.`.#l#5.1#4.K#5#5.L.4#U#K#D.v#Y#xa#.y`r`t#f`G`M.b`t#F.k`Y`4#L#S.W.R.X.x.oa.`z.X.Za..4#8",
".F`v.Z`v`v`L#a.Y`g.i.n#g.0`J.S.O#c.6#l`M`T.c`T.4.L#2.L.j#K`m`4#Daa#F.l.a`z``aa.N.``t.Jaa#v#L#N.l.l`6`t`a`V#W`i#y.z#8#2#8",
".F`v.Z`va..2#1.q#n#i#k.E.V#q`1##.Q`p`P.4af#raf#2#2#2#2ab#8.u#Y.s.Z`iaa`tag`n.b.b.b#L.A.l`B`t#X#Kac#N#y`2`N#8#X`4.u#K.L`7",
".F`v`v#M.y.d.3`j#`#t#`#t`I`I.p.p`I`j`7#A#2#r`T`h#2.1.K#5#Fae`t`M#I#U`s`t#o`6#vae`6`6`3.l`U#y`Z#8ac#D`4#X.Z.Z.W#Y#C#K.4#8",
"`Da.`va.a.`2.s`i.y`i`i.s.s.s.s.s#X`Z#X.W.j.c`x#X.W#A.W`Z#z.C#o`v`#`2aa`l#m``aa.U`eaa#0ac#D`4`3.Z`N.u`4`S.Z`v#X`4#C#K`h`7",
".Fa.a.a.`2.y`i.s#7`Z`w`3#X`Z.W.m.W#A#U#A.4#r.4#U#U.j#U.Waca#.7`i.Z#X.k.z`z`6`o#Taa`6`7`N`m`4#X`v#K`m#Y#Xa.#M`S.X`C#8#2`7",
"#W`ia.`i`i`i#I#I.s#7`Z#7#X#X.m#A#U.W#A#U.4.D#2.j.j`M.j#U.k#D`4`3#M#U.W`c#o`4#Y`4#Y`t.s`N`6`t`Wa.#0`Y`t`Ma.#7.G#L#v#0.1#0",
"#W`K`i`i`i.s#7.s`Z`w#X#X.m.W#A.W#A#U#A#U`h.D#2ab.j.jab.j`i`v.J.Uab.j.j`iah`M#C#D.z#V.Z.m`i`B`q.j#X`i#dac#5#5.k#d.s.j#5.Z",
"`X`0`v#7`w`Z#X#X#A.W#A#U#A#U#U#Uab.j`M.j#P.N.1.4.4.`.L#5.4#U.d#5.L#2#2.4.La.#0#F`K.j#2.`.j.Z#2#2.K#5`K#2#R#x.K#M`M#5#K`v",
"#V#V`e.U.U.U`e`X`e`X`X#V.H#Vacacacacac`q#K.B`7`q#Kac`q#K`q#K#8#8`q#8#8#8`q#8.w#8`7#K#8#8`7`7`#`7#8`7#0`7`7#F`7#0.Z.Z.ya."
};
